<svg width="738" height="519" viewBox="0 0 738 519" fill="none" xmlns="http://www.w3.org/2000/svg">
<g clip-path="url(#clip0)">
<path d="M734.488 169.421C724.308 204.532 694.583 229.11 663.576 249.989C659.246 252.905 654.916 255.753 650.583 258.535C650.554 258.548 650.524 258.575 650.494 258.588C650.286 258.721 650.077 258.855 649.883 258.989C648.989 259.562 648.094 260.135 647.207 260.701L647.694 260.919C647.694 260.919 648.173 261.172 647.649 260.959C647.494 260.895 647.331 260.836 647.175 260.771C629.162 253.549 610.829 245.794 597.025 232.263C582.705 218.213 574.336 196.175 582.09 177.717C583.11 175.299 584.397 173.002 585.929 170.868C586.558 169.973 587.235 169.117 587.94 168.276C592.217 163.086 597.808 159.122 604.137 156.793C610.466 154.463 617.304 153.851 623.95 155.02C630.596 156.189 636.808 159.096 641.949 163.443C647.089 167.791 650.972 173.421 653.199 179.755C655.477 158.668 637.988 141.005 621.157 127.972C604.319 114.946 585.186 100.76 581.93 79.7908C580.113 68.1237 584.193 56.8171 591.627 47.7406C591.858 47.4648 592.087 47.1894 592.324 46.9212C601.374 36.3497 614.101 29.5614 627.965 27.912C653.784 25.2442 678.864 38.8313 697.621 56.6785C727.81 85.3935 746.061 129.5 734.488 169.421Z" fill="#F2F2F2"/>
<path d="M685.957 123.496C690.913 131.16 694.717 139.503 697.251 148.259C699.393 156.085 700.347 164.186 700.08 172.292C699.616 188.955 694.459 205.238 686.345 219.74C680.067 230.736 672.417 240.9 663.576 249.989C659.247 252.905 654.916 255.753 650.584 258.535C650.554 258.548 650.524 258.575 650.494 258.588C650.286 258.721 650.077 258.855 649.883 258.989C648.989 259.562 648.094 260.135 647.208 260.701C647.208 260.701 648.173 261.172 647.65 260.959C647.494 260.895 647.331 260.836 647.175 260.771C648.79 247.612 647.208 234.26 642.563 221.833C637.918 209.407 630.345 198.268 620.478 189.351C610.587 180.57 598.749 174.236 585.929 170.868C586.558 169.973 587.235 169.117 587.94 168.276C592.892 169.656 597.711 171.469 602.341 173.694C618.893 181.596 632.446 194.586 640.994 210.742C648.664 225.412 651.965 241.954 650.51 258.424C651.25 257.757 651.991 257.076 652.709 256.401C666.398 243.714 678.555 229.151 686.783 212.344C693.921 198.111 697.43 182.351 696.999 166.453C696.328 149.118 689.38 133.061 679.321 119.082C668.546 104.122 655.037 90.8859 640.611 79.4195C625.836 67.654 609.667 57.7302 592.467 49.8694C592.079 49.6894 591.776 49.3681 591.619 48.9718C591.463 48.5756 591.466 48.1348 591.627 47.7406C591.742 47.3868 591.993 47.0924 592.325 46.9212C592.495 46.848 592.68 46.8141 592.866 46.8219C593.052 46.8298 593.233 46.8792 593.397 46.9665C595.521 47.9385 597.63 48.9237 599.722 49.9516C617.146 58.5139 633.434 69.195 648.209 81.7497C662.481 93.8467 675.918 107.668 685.957 123.496Z" fill="white"/>
<path d="M568.349 370.461C589.202 370.461 606.108 353.655 606.108 332.922C606.108 312.19 589.202 295.383 568.349 295.383C547.495 295.383 530.59 312.19 530.59 332.922C530.59 353.655 547.495 370.461 568.349 370.461Z" fill="#2F2E41"/>
<path d="M538.875 312.682C544.977 306.616 546.213 298.01 541.637 293.461C537.061 288.911 528.405 290.14 522.303 296.207C516.201 302.273 514.965 310.879 519.541 315.428C524.117 319.978 532.773 318.749 538.875 312.682Z" fill="#2F2E41"/>
<path d="M607.703 300.761C610.246 294.844 605.874 287.316 597.938 283.946C590.003 280.576 581.509 282.641 578.967 288.557C576.424 294.474 580.796 302.003 588.732 305.373C596.667 308.743 605.161 306.678 607.703 300.761Z" fill="#2F2E41"/>
<path d="M648.313 494.103C641.825 498.584 634.969 502.514 627.818 505.851L626.76 503.994L616.641 486.334L615.754 484.785L610.577 475.753L610.567 475.742L594.223 447.194L585.822 432.538L610.769 415.143L620.473 435.541L625.736 446.621L647.395 492.16L648.313 494.103Z" fill="#A0616A"/>
<path d="M626.024 425.225L622.896 420.354L609.062 398.778C607.173 394.586 603.69 391.309 599.375 389.666C595.061 388.022 590.267 388.145 586.044 390.009C581.821 391.872 578.513 395.323 576.845 399.607C575.177 403.89 575.284 408.656 577.144 412.861L585.695 443.15C585.936 444.007 586.358 444.803 586.934 445.484C587.511 446.165 588.227 446.716 589.035 447.099C589.843 447.482 590.724 447.689 591.619 447.705C592.514 447.721 593.402 447.547 594.224 447.194C594.256 447.183 594.277 447.173 594.309 447.162L620.474 435.541L623.291 434.289C624.114 433.92 624.848 433.38 625.442 432.705C626.037 432.03 626.479 431.236 626.738 430.377C626.997 429.517 627.068 428.613 626.944 427.724C626.821 426.835 626.508 425.983 626.024 425.225H626.024Z" fill="#6C63FF"/>
<path d="M550.851 425.904L543.571 442.248L541.991 445.804L515.036 506.339L514.172 508.281C506.873 505.256 499.845 501.62 493.163 497.414L493.889 495.376L515.89 433.662L521.292 418.507L533.12 421.468L550.851 425.904Z" fill="#A0616A"/>
<path d="M597.665 357.165C606.154 341.726 600.447 322.369 584.917 313.929C569.388 305.489 549.917 311.163 541.428 326.602C532.938 342.041 538.646 361.399 554.175 369.839C569.705 378.278 589.176 372.604 597.665 357.165Z" fill="#A0616A"/>
<path d="M625.404 432.749C624.941 428.551 624.102 424.403 622.896 420.354C619.262 408.161 612.314 397.203 602.816 388.685C599.327 385.571 594.802 383.851 590.113 383.856H544.968C541.724 383.848 538.531 384.666 535.695 386.233C532.86 387.801 530.475 390.064 528.77 392.808C527.064 395.552 526.095 398.685 525.954 401.908C525.812 405.13 526.504 408.335 527.963 411.216L533.119 421.468L543.57 442.248L546.078 447.225L557.255 469.459L558.141 471.221L614.879 486.737L615.124 486.196C615.338 485.718 615.551 485.251 615.754 484.784C616.064 484.073 616.373 483.383 616.662 482.683C622.384 469.194 625.084 457.191 625.735 446.62C626.028 441.996 625.917 437.355 625.404 432.749Z" fill="#6C63FF"/>
<path d="M553.157 389.672C548.981 387.727 544.2 387.506 539.86 389.057C535.521 390.609 531.977 393.806 530.003 397.95L525.978 403.989L512.528 424.174C512.029 424.923 511.698 425.77 511.558 426.658C511.417 427.546 511.471 428.453 511.715 429.318C511.959 430.183 512.388 430.986 512.972 431.671C513.557 432.357 514.283 432.909 515.101 433.291L515.89 433.662L541.991 445.803L543.848 446.663C544.549 446.991 545.306 447.182 546.079 447.225C547.111 447.307 548.146 447.128 549.09 446.705C549.913 446.339 550.647 445.8 551.242 445.126C551.837 444.452 552.279 443.659 552.538 442.8L561.569 412.755C563.528 408.584 563.743 403.811 562.166 399.483C560.588 395.156 557.349 391.627 553.157 389.672Z" fill="#6C63FF"/>
<path d="M616.662 482.683C616.471 482.022 616.164 481.4 615.754 480.847C614.295 478.901 612.55 477.184 610.578 475.752L610.567 475.742C603.703 470.573 590.039 464.535 563.682 464.375H563.639C562.431 464.375 561.248 464.719 560.232 465.369C559.215 466.018 558.408 466.944 557.907 468.037L557.256 469.459L553.06 478.629C552.704 479.418 552.14 480.096 551.427 480.592C547.637 483.256 535.575 492.913 529.341 511.359C529.117 512.017 528.903 512.685 528.7 513.375C555.355 521.117 583.715 520.862 610.225 512.643L610.812 510.234L616.641 486.334L616.737 485.941C617.001 484.867 616.975 483.743 616.662 482.683Z" fill="#2F2E41"/>
<path d="M535.873 321.845C543.196 326.862 551.888 329.533 560.781 329.497C557.609 331.684 553.997 333.162 550.195 333.827C562.02 336.349 574.241 336.417 586.094 334.028C588.728 333.608 591.27 332.74 593.609 331.462C594.774 330.815 595.789 329.931 596.588 328.869C597.387 327.806 597.952 326.588 598.247 325.294C599.035 320.821 595.529 316.757 591.885 314.018C586.307 309.889 579.875 307.044 573.055 305.689C566.235 304.334 559.197 304.503 552.45 306.184C548.045 307.316 543.632 309.229 540.771 312.746C537.91 316.263 537.062 321.685 539.788 325.306L535.873 321.845Z" fill="#2F2E41"/>
<path d="M580.081 32.3472H1.15918V34.654H580.081V32.3472Z" fill="#3F3D56"/>
<path d="M20.8819 24.2271C24.7263 24.2271 27.8429 21.1287 27.8429 17.3067C27.8429 13.4846 24.7263 10.3862 20.8819 10.3862C17.0374 10.3862 13.9209 13.4846 13.9209 17.3067C13.9209 21.1287 17.0374 24.2271 20.8819 24.2271Z" fill="#3F3D56"/>
<path d="M40.8946 24.2271C44.739 24.2271 47.8555 21.1287 47.8555 17.3067C47.8555 13.4846 44.739 10.3862 40.8946 10.3862C37.0501 10.3862 33.9336 13.4846 33.9336 17.3067C33.9336 21.1287 37.0501 24.2271 40.8946 24.2271Z" fill="#3F3D56"/>
<path d="M60.9082 24.2271C64.7527 24.2271 67.8692 21.1287 67.8692 17.3067C67.8692 13.4846 64.7527 10.3862 60.9082 10.3862C57.0638 10.3862 53.9473 13.4846 53.9473 17.3067C53.9473 21.1287 57.0638 24.2271 60.9082 24.2271Z" fill="#3F3D56"/>
<path d="M454.702 166.221H126.127C125.149 166.221 124.181 166.029 123.278 165.657C122.374 165.285 121.553 164.74 120.862 164.052C120.17 163.365 119.622 162.549 119.248 161.651C118.873 160.752 118.681 159.79 118.681 158.818C118.681 157.845 118.873 156.883 119.248 155.985C119.622 155.086 120.17 154.27 120.862 153.583C121.553 152.895 122.374 152.35 123.278 151.978C124.181 151.606 125.149 151.415 126.127 151.415H454.702C455.68 151.415 456.648 151.606 457.552 151.978C458.455 152.35 459.276 152.895 459.967 153.583C460.659 154.27 461.207 155.086 461.582 155.985C461.956 156.883 462.148 157.845 462.148 158.818C462.148 159.79 461.956 160.752 461.582 161.651C461.207 162.549 460.659 163.365 459.967 164.052C459.276 164.74 458.455 165.285 457.552 165.657C456.648 166.029 455.68 166.221 454.702 166.221Z" fill="#CCCCCC"/>
<path d="M454.702 245.804H126.127C125.149 245.804 124.181 245.612 123.278 245.24C122.374 244.868 121.553 244.323 120.862 243.635C120.17 242.948 119.622 242.132 119.248 241.234C118.873 240.336 118.681 239.373 118.681 238.401C118.681 237.428 118.873 236.466 119.248 235.568C119.622 234.669 120.17 233.853 120.862 233.166C121.553 232.478 122.374 231.933 123.278 231.561C124.181 231.189 125.149 230.998 126.127 230.998H454.702C455.68 230.998 456.648 231.189 457.552 231.561C458.455 231.933 459.276 232.478 459.967 233.166C460.659 233.853 461.207 234.669 461.582 235.568C461.956 236.466 462.148 237.428 462.148 238.401C462.148 239.373 461.956 240.336 461.582 241.234C461.207 242.132 460.659 242.948 459.967 243.635C459.276 244.323 458.455 244.868 457.552 245.24C456.648 245.612 455.68 245.804 454.702 245.804Z" fill="#E6E6E6"/>
<path d="M454.702 276.342H126.127C124.152 276.342 122.258 275.562 120.862 274.174C119.465 272.785 118.681 270.902 118.681 268.939C118.681 266.975 119.465 265.092 120.862 263.704C122.258 262.316 124.152 261.536 126.127 261.536H454.702C456.677 261.536 458.571 262.316 459.967 263.704C461.364 265.092 462.148 266.975 462.148 268.939C462.148 270.902 461.364 272.785 459.967 274.174C458.571 275.562 456.677 276.342 454.702 276.342Z" fill="#E6E6E6"/>
<path d="M401.181 134.757H179.649C177.674 134.757 175.78 133.977 174.383 132.589C172.987 131.201 172.202 129.318 172.202 127.354C172.202 125.391 172.987 123.508 174.383 122.12C175.78 120.731 177.674 119.951 179.649 119.951H401.181C403.156 119.951 405.05 120.731 406.446 122.12C407.843 123.508 408.627 125.391 408.627 127.354C408.627 129.318 407.843 131.201 406.446 132.589C405.05 133.977 403.156 134.757 401.181 134.757Z" fill="#CCCCCC"/>
<path d="M241.965 215.266H126.545C125.567 215.267 124.597 215.077 123.693 214.705C122.788 214.334 121.966 213.789 121.274 213.101C120.582 212.413 120.032 211.597 119.658 210.698C119.283 209.799 119.09 208.836 119.09 207.863C119.09 206.89 119.283 205.927 119.658 205.028C120.032 204.129 120.582 203.313 121.274 202.625C121.966 201.938 122.788 201.392 123.693 201.021C124.597 200.649 125.567 200.459 126.545 200.46H241.965C243.94 200.46 245.834 201.24 247.231 202.628C248.627 204.017 249.412 205.9 249.412 207.863C249.412 209.827 248.627 211.71 247.231 213.098C245.834 214.486 243.94 215.266 241.965 215.266Z" fill="#E6E6E6"/>
<path d="M455.12 215.266H339.699C338.721 215.267 337.752 215.077 336.847 214.705C335.943 214.334 335.121 213.789 334.428 213.101C333.736 212.413 333.187 211.597 332.812 210.698C332.437 209.799 332.244 208.836 332.244 207.863C332.244 206.89 332.437 205.927 332.812 205.028C333.187 204.129 333.736 203.313 334.428 202.625C335.121 201.938 335.943 201.392 336.847 201.021C337.752 200.649 338.721 200.459 339.699 200.46H455.12C456.098 200.459 457.068 200.649 457.972 201.021C458.876 201.392 459.698 201.938 460.391 202.625C461.083 203.313 461.633 204.129 462.007 205.028C462.382 205.927 462.575 206.89 462.575 207.863C462.575 208.836 462.382 209.799 462.007 210.698C461.633 211.597 461.083 212.413 460.391 213.101C459.698 213.789 458.876 214.334 457.972 214.705C457.068 215.077 456.098 215.267 455.12 215.266Z" fill="#E6E6E6"/>
<path d="M573.119 0H8.11309C5.96054 0.00325567 3.89723 0.855543 2.37614 2.36975C0.855041 3.88396 0.000472607 5.93635 0 8.07638V388.706C0.00271181 390.844 0.858347 392.894 2.37926 394.407C3.90018 395.919 5.96221 396.769 8.11309 396.772H430.618C430.512 396.008 430.426 395.233 430.341 394.469H8.11309C6.57616 394.468 5.10258 393.86 4.01579 392.78C2.929 391.699 2.3178 390.234 2.31639 388.706V8.07638C2.31739 6.54729 2.92811 5.08097 4.01468 3.99876C5.10126 2.91656 6.57506 2.30675 8.11309 2.30299H573.119C574.658 2.30458 576.134 2.91336 577.223 3.99574C578.312 5.07811 578.924 6.54568 578.926 8.07638V241.357C579.694 241.41 580.474 241.474 581.243 241.548V8.07638C581.241 5.93466 580.385 3.88097 578.862 2.36658C577.339 0.852189 575.273 0.000984251 573.119 0Z" fill="#3F3D56"/>
<path d="M430.618 396.772C430.511 396.008 430.426 395.233 430.341 394.469C430.319 394.352 430.309 394.246 430.298 394.129C429.988 391.338 429.764 388.519 429.625 385.671C429.038 388.122 428.508 390.584 428.035 393.057C428.067 393.418 428.099 393.768 428.141 394.129C428.152 394.246 428.163 394.352 428.184 394.469C428.27 395.233 428.355 396.008 428.462 396.772C428.761 399.138 429.124 401.473 429.551 403.798C429.561 403.702 429.572 403.617 429.583 403.522C429.882 401.282 430.223 399.054 430.629 396.825C430.62 396.808 430.617 396.79 430.618 396.772ZM581.242 239.415C580.474 239.341 579.694 239.277 578.926 239.224C578.808 239.213 578.701 239.213 578.584 239.203C575.168 238.948 571.709 238.821 568.229 238.821C548.526 238.827 529.043 242.94 511.038 250.894C493.032 258.848 476.904 270.466 463.694 284.999C450.484 299.533 440.485 316.658 434.343 335.27C428.201 353.883 426.052 373.568 428.035 393.057C428.067 393.418 428.099 393.768 428.141 394.129C428.152 394.246 428.163 394.352 428.184 394.469C428.27 395.233 428.355 396.008 428.462 396.772C428.761 399.138 429.124 401.473 429.551 403.798C433.792 426.84 443.753 448.465 458.53 466.71C473.307 484.956 492.433 499.245 514.171 508.281C516.392 509.194 518.633 510.064 520.907 510.86C522.402 511.401 523.896 511.9 525.412 512.378C526.501 512.728 527.601 513.057 528.7 513.375C530.258 513.831 531.838 514.267 533.429 514.67C552.941 519.646 573.302 520.385 593.126 516.836C612.951 513.287 631.773 505.533 648.313 494.102H648.324C667.08 481.227 682.413 464.019 693.005 443.955C703.598 423.891 709.134 401.57 709.139 378.91C709.139 306.021 652.861 245.963 581.242 239.415ZM647.395 492.16C640.872 496.688 633.968 500.647 626.76 503.993C621.581 506.403 616.254 508.487 610.812 510.234C586.254 518.09 559.981 518.998 534.934 512.855C533.055 512.399 531.191 511.9 529.34 511.359C527.515 510.828 525.707 510.266 523.918 509.671C522.455 509.172 520.992 508.663 519.541 508.122C518.025 507.549 516.531 506.954 515.036 506.339C492.557 497.025 472.93 482.009 458.118 462.791C443.306 443.573 433.827 420.826 430.629 396.825C430.62 396.808 430.617 396.79 430.618 396.772C430.511 396.008 430.426 395.233 430.341 394.469C430.319 394.352 430.309 394.246 430.298 394.129C429.988 391.338 429.764 388.519 429.625 385.671C429.508 383.431 429.451 381.178 429.454 378.91C429.495 342.332 444.129 307.262 470.145 281.397C496.162 255.532 531.436 240.983 568.229 240.943C571.71 240.943 575.168 241.071 578.584 241.325C578.701 241.336 578.808 241.347 578.926 241.357C579.694 241.41 580.474 241.474 581.242 241.548C651.686 248.086 707.004 307.189 707.004 378.91C707.001 401.169 701.578 423.096 691.197 442.817C680.817 462.539 665.788 479.469 647.395 492.16ZM519.541 508.122C518.025 507.549 516.531 506.954 515.036 506.339C492.557 497.025 472.93 482.009 458.118 462.791C443.306 443.573 433.827 420.826 430.629 396.825C430.223 399.054 429.882 401.282 429.583 403.522C429.572 403.617 429.561 403.702 429.551 403.798C433.792 426.84 443.753 448.465 458.53 466.71C473.307 484.956 492.433 499.245 514.171 508.281C516.392 509.194 518.633 510.064 520.907 510.86C520.438 509.958 519.979 509.045 519.541 508.122ZM578.584 239.203C575.168 238.948 571.709 238.821 568.229 238.821C548.526 238.827 529.043 242.94 511.038 250.894C493.032 258.848 476.904 270.466 463.694 284.999C450.484 299.533 440.485 316.658 434.343 335.27C428.201 353.883 426.052 373.568 428.035 393.057C428.067 393.418 428.099 393.768 428.141 394.129C428.152 394.246 428.163 394.352 428.184 394.469H430.34C430.319 394.352 430.309 394.246 430.298 394.129C429.988 391.338 429.764 388.519 429.625 385.671C429.508 383.431 429.451 381.178 429.454 378.91C429.495 342.332 444.128 307.262 470.145 281.397C496.162 255.532 531.436 240.983 568.229 240.943C571.709 240.943 575.168 241.071 578.584 241.325C578.701 241.336 578.808 241.347 578.925 241.357V239.224C578.808 239.213 578.701 239.213 578.584 239.203H578.584Z" fill="#3F3D56"/>
<path d="M682.766 274.678C726.046 275.413 726.04 339.417 682.764 340.146C639.485 339.411 639.492 275.407 682.766 274.678Z" fill="#6C63FF"/>
<path d="M682.767 325.236C682.153 325.235 681.565 324.992 681.131 324.561C680.698 324.13 680.454 323.545 680.453 322.935V310.738C680.453 310.466 680.344 310.206 680.151 310.013C679.957 309.821 679.695 309.713 679.422 309.713H667.153C666.539 309.713 665.951 309.47 665.517 309.039C665.083 308.607 664.839 308.022 664.839 307.412C664.839 306.802 665.083 306.216 665.517 305.785C665.951 305.353 666.539 305.111 667.153 305.111H679.422C679.695 305.111 679.957 305.003 680.151 304.811C680.344 304.618 680.453 304.358 680.453 304.086V291.888C680.453 291.278 680.697 290.693 681.131 290.262C681.565 289.83 682.153 289.588 682.767 289.588C683.38 289.588 683.969 289.83 684.403 290.262C684.837 290.693 685.08 291.278 685.08 291.888V304.086C685.081 304.358 685.19 304.618 685.383 304.811C685.576 305.003 685.838 305.111 686.112 305.111H698.38C698.994 305.111 699.583 305.353 700.017 305.785C700.451 306.216 700.695 306.802 700.695 307.412C700.695 308.022 700.451 308.607 700.017 309.039C699.583 309.47 698.994 309.713 698.38 309.713H686.112C685.838 309.713 685.576 309.821 685.383 310.013C685.189 310.206 685.081 310.466 685.08 310.738V322.935C685.08 323.545 684.836 324.13 684.402 324.561C683.968 324.992 683.38 325.235 682.767 325.236Z" fill="white"/>
</g>
<defs>
<clipPath id="clip0">
<rect width="738" height="519" fill="white"/>
</clipPath>
</defs>
</svg>
