<svg width="560" height="210" viewBox="0 0 560 210" fill="none" xmlns="http://www.w3.org/2000/svg">
<path d="M543.207 1.68628C541.564 2.51841 538.483 5.51408 536.224 8.26012C534.034 11.0062 531.021 13.9186 529.584 14.834C525.887 17.0807 512.949 21.9071 501.927 24.986C457.362 37.7176 439.221 44.2914 409.853 58.2712C399.859 63.0976 396.573 64.0961 391.301 64.0961C386.441 64.0961 384.182 62.8479 388.084 62.2655C390.822 61.8494 390.685 60.2683 387.742 58.8537C385.346 57.6887 381.649 53.6113 378.158 48.2856C376.857 46.3717 376.241 46.2053 369.327 45.706C362.07 45.29 361.728 45.2068 353.513 40.5468C343.245 34.6387 340.233 33.3073 337.015 33.3073C335.441 33.3073 333.524 32.4751 331.881 31.0605L329.143 28.897L314.767 28.8138L300.323 28.7306L292.108 25.5685C283.414 22.2399 281.976 22.1567 278.553 25.1524C276.705 26.7334 276.226 26.8167 273.351 25.9013C269.243 24.6531 268.353 25.0692 258.701 32.808C249.802 40.0475 250.212 39.7979 238.027 43.6257C227.416 47.0374 227.142 47.2039 224.336 50.782C223.24 52.2799 221.187 54.1106 219.818 55.0259C216.737 56.9398 208.111 65.1779 201.813 72.1678C197.911 76.5781 196.337 77.6599 192.298 79.1577C189.423 80.2395 186.753 81.7373 185.658 83.152C183.125 86.1476 180.455 95.3011 180.181 101.792C180.181 102.707 177.032 104.038 172.719 104.954C170.255 105.536 164.231 105.536 154.168 104.871C124.731 103.123 88.5176 103.955 61.4088 106.951C54.6316 107.783 44.5 108.449 38.8181 108.532L28.5496 108.615L21.6355 104.288C14.0368 99.4617 10.8193 98.796 6.57502 101.209C1.57769 104.122 -0.476011 110.363 0.824665 118.518C2.53608 128.919 11.1616 145.146 18.9657 152.552C20.9509 154.466 25.4691 157.877 28.9604 160.207L35.3268 164.368L39.9819 173.521C44.8423 183.008 52.6464 195.49 59.492 204.56L63.4625 209.802L291.629 209.969C417.178 210.052 519.931 209.969 520.068 209.719C520.205 209.47 518.905 206.807 517.262 203.728C513.086 195.823 505.35 186.253 496.862 178.514C492.891 174.853 489.605 171.524 489.605 171.025C489.605 170.609 491.111 168.861 492.823 167.28C512.538 149.39 529.789 115.189 536.84 79.9899C538.346 72.3342 538.552 71.9182 543.07 66.01C548.546 58.8537 550.874 54.8595 553.886 47.6199C558.336 36.8854 561.211 17.8296 559.499 10.2572C558.609 6.17979 555.118 2.18556 551.422 0.937361C547.793 -0.310836 546.493 -0.14441 543.207 1.68628ZM551.079 16.9975C551.558 31.3934 546.903 45.5396 537.799 57.2727C531.638 65.3443 530.542 67.4247 529.379 74.0817C525.682 94.3025 515.756 120.848 506.103 136.076C499.189 147.06 485.429 162.454 479.611 165.783C478.104 166.615 478.036 166.615 460.306 152.469L454.624 147.975L455.035 143.648C455.651 137.906 453.802 128.253 450.927 121.929C448.463 116.604 441.48 107.367 439.769 107.367C439.221 107.367 438.947 107.866 439.153 108.366C439.358 108.948 440.796 113.109 442.302 117.602C445.382 126.34 448.052 138.655 447.71 141.984L447.504 143.981L445.108 142.067C441.822 139.321 434.292 135.743 429.569 134.744C426.762 134.078 424.571 134.162 421.559 134.827C413.071 136.824 413.481 136.824 412.249 134.827L411.085 132.913L409.648 136.658C408.621 139.238 406.773 141.568 403.555 144.397C396.23 150.971 390.822 157.545 382.813 169.694C375.967 180.012 370.148 187.002 359.469 197.487L356.32 200.566H266.984H177.58L177.237 198.652C177.032 197.653 176.484 193.825 176.074 190.164C174.978 180.678 174.773 179.596 174.02 180.178C173.609 180.511 173.335 185.088 173.335 190.663V200.566H162.109H150.882L150.471 195.739C149.786 188.916 146.569 181.51 141.64 175.851L137.533 171.108L137.943 165.034C138.149 161.705 138.08 158.959 137.738 158.959C137.464 158.959 136.232 160.79 135 163.12C133.767 165.367 132.672 167.28 132.467 167.28C132.33 167.28 128.359 164.118 123.636 160.207C118.844 156.296 114.052 152.968 112.683 152.635C110.629 152.219 109.123 152.801 102.483 156.879C95.3633 161.289 94.268 161.705 88.0384 162.454C80.4398 163.369 76.7431 165.117 73.1834 169.527C68.8706 174.686 68.2545 177.183 68.2545 189.166C68.3229 194.99 68.0491 199.65 67.8437 199.567C65.8585 198.652 53.947 181.011 49.4289 172.273C40.8034 155.631 41.351 156.38 33.5469 151.387C22.5254 144.314 14.1053 133.246 10.2032 120.681C8.97101 116.687 8.76564 114.024 9.4502 110.945C9.86094 109.281 9.99786 109.198 12.3254 110.279C13.763 110.862 16.5012 112.526 18.5549 113.941C24.716 118.434 29.0288 119.35 41.2141 118.684C50.9349 118.268 65.4478 117.103 88.7915 114.939C101.114 113.774 136.506 113.858 149.718 115.023C155.742 115.522 163.82 116.021 167.654 115.938C173.883 115.938 175.115 115.688 178.127 113.774C180.044 112.526 181.687 111.944 181.893 112.443C182.166 112.859 181.071 117.935 179.565 123.594C176.758 134.078 174.705 148.141 175.595 151.054C175.868 151.886 176.279 152.302 176.484 152.136C176.895 151.636 179.77 139.57 185.384 115.272C190.792 91.8893 191.34 90.8076 198.664 88.1447C200.787 87.3126 203.251 85.2323 207.221 80.7388C213.656 73.416 220.707 66.5093 223.788 64.6786C224.952 63.9297 227.279 61.8494 228.991 60.1019C232.071 56.8566 233.235 56.3573 248.432 51.531C252.608 50.1995 255.347 48.7017 258.701 45.8725C261.302 43.7089 264.451 41.4622 265.752 40.7965C267.053 40.214 268.969 38.9658 269.996 38.1336C271.708 36.719 272.05 36.6358 273.898 37.884C276.842 39.7147 278.416 39.465 281.018 36.719L283.277 34.3058L290.396 36.6358C294.367 37.9672 298.543 39.465 299.638 39.9643C301.007 40.63 306.21 40.8797 314.767 40.7965C326.952 40.7132 328.047 40.8797 330.307 42.4607C331.813 43.5425 333.661 44.125 335.372 44.0418C337.358 43.8753 340.301 45.2068 347.9 49.5338C353.376 52.6127 358.442 55.6916 359.195 56.2741C360.017 57.023 362.413 57.4391 365.699 57.4391H370.901L373.708 60.934C375.283 62.9312 382.06 74.4146 388.769 86.4805C395.477 98.5464 401.365 108.615 401.844 108.865C405.472 110.279 397.942 92.7215 389.932 81.0716C385.688 74.9139 385.756 74.6642 391.37 74.8306C397.12 74.9971 401.365 73.5824 415.33 66.759C435.935 56.7734 460.58 47.4535 485.498 40.2972C529.379 27.732 534.718 25.402 542.454 15.6661C545.877 11.339 546.698 10.7565 548.615 11.0062L550.874 11.2558L551.079 16.9975ZM435.388 143.065C443.808 146.893 459.827 158.46 476.256 172.606C486.73 181.593 503.981 198.569 503.981 199.9C503.981 200.233 496.793 200.482 488.099 200.399C472.628 200.15 472.149 200.066 472.286 198.485C472.423 197.57 472.491 193.409 472.559 189.249C472.833 171.857 467.014 164.035 452.57 162.454C445.998 161.705 444.355 161.039 435.524 155.131C430.527 151.886 427.31 152.302 420.259 157.378C410.88 164.202 397.736 176.517 394.998 181.094C392.328 185.504 390.754 190.414 390.001 196.571L389.522 200.566L377.747 199.983C371.312 199.734 365.972 199.401 365.836 199.318C365.699 199.151 368.3 196.239 371.654 192.827C375.283 188.999 381.033 181.51 386.304 173.771C398.832 155.215 408.963 145.146 418.547 141.9C423.134 140.319 430.459 140.819 435.388 143.065ZM115.49 160.457C116.653 161.123 121.719 165.117 126.785 169.278C136.3 177.016 141.229 182.342 143.488 187.168L144.721 189.914L142.804 189.748C138.902 189.415 137.67 189.748 136.027 191.828C134.726 193.326 134.315 194.741 134.315 197.57C134.315 199.65 134.041 201.481 133.699 201.814C132.878 202.396 130.755 198.735 128.839 193.326C127.401 189.166 127.196 188.916 122.814 187.168C119.255 185.754 118.091 185.587 117.064 186.336C116.037 187.168 115.421 187.002 113.847 185.587C111.177 183.341 105.495 183.341 102.483 185.587L100.224 187.335L99.7445 184.755C99.1969 181.76 98.0331 181.593 94.3365 184.173C91.3244 186.253 90.8452 187.085 89.8183 191.995C89.1338 195.406 87.7646 196.904 87.7646 194.408C87.7646 192.161 84.3418 188.167 81.9458 187.584C79.1391 187.002 77.3592 187.584 74.7579 190.33L72.7042 192.411V187.501C72.7042 180.678 73.6626 177.266 76.6062 173.771C80.1659 169.61 83.5203 168.029 90.9136 167.28C96.664 166.698 97.7593 166.282 103.852 162.371C110.835 157.961 111.314 157.877 115.49 160.457ZM434.155 160.623C441.206 165.367 444.082 166.532 450.243 167.447C463.249 169.194 467.699 174.27 467.699 187.584V192.577L465.577 190.081C463.934 188.167 462.907 187.668 460.648 187.751C456.814 187.834 454.761 189.249 453.597 192.744C453.049 194.325 452.365 195.573 452.091 195.573C451.749 195.573 451.133 193.742 450.653 191.495C449.763 187.168 447.984 184.589 444.903 183.174C442.233 181.926 441.686 182.009 441.686 183.84C441.686 186.669 440.111 187.335 437.92 185.587C435.114 183.341 429.5 183.341 427.104 185.587C425.256 187.418 423.887 187.751 423.887 186.419C423.887 185.171 422.038 185.421 417.246 187.335C413.687 188.833 412.865 189.582 412.455 191.329C411.838 194.574 409.853 199.151 408.279 200.815C406.978 202.313 406.91 202.23 406.636 197.57C406.225 191.495 404.65 189.748 399.859 189.748C398.01 189.748 396.504 189.415 396.504 189.082C396.504 187.917 400.269 182.092 402.734 179.263C405.267 176.517 420.875 163.369 425.461 160.124C429.158 157.628 429.637 157.628 434.155 160.623ZM110.698 189.249C113.436 190.663 113.367 190.414 112.135 193.576C111.588 194.907 110.492 197.82 109.739 199.983C108.918 202.23 108.028 203.811 107.754 203.561C106.659 202.812 103.304 190.497 103.92 189.748C104.263 189.332 105.29 188.916 106.248 188.666C107.206 188.5 108.028 188.25 108.165 188.167C108.233 188.167 109.397 188.666 110.698 189.249ZM436.346 189.582C437.03 190.414 434.634 200.982 433.334 202.646C432.581 203.645 432.033 202.646 429.569 195.656C427.72 190.497 427.72 190.33 429.089 189.166C430.527 187.834 435.182 188.167 436.346 189.582ZM82.9042 193.576C84.3418 194.824 84.4787 195.406 84.068 199.401C83.5203 205.226 83.1096 206.391 81.4666 206.391C80.5082 206.391 79.6183 204.976 78.1122 200.982C75.9901 195.24 75.9901 194.242 78.4545 193.077C80.5767 191.995 81.1243 192.078 82.9042 193.576ZM462.291 193.077C464.345 194.408 464.002 199.401 461.538 204.144C460.443 206.307 459.279 208.055 458.937 208.055C458.115 208.055 456.746 202.313 456.746 199.068C456.746 193.409 459.005 190.996 462.291 193.077ZM142.941 195.739C143.557 198.319 143.351 205.725 142.598 206.64C141.777 207.639 139.792 205.891 139.792 204.227C139.792 203.561 139.312 203.062 138.765 203.062C137.464 203.062 137.327 196.405 138.559 194.907C139.929 193.243 142.393 193.742 142.941 195.739ZM402.528 194.907C403.761 196.405 403.555 198.485 401.638 203.062C399.859 207.223 398.352 208.305 397.599 205.891C396.915 203.645 397.12 197.32 398.01 195.573C398.969 193.742 401.296 193.409 402.528 194.907Z" fill="#6C63FF"/>
<path d="M527.598 37.052C520.478 39.9645 509.046 43.8755 502.269 45.7894C495.492 47.7033 487.961 49.9501 485.497 50.7822C483.032 51.6143 476.871 53.6947 471.806 55.3589C460.442 59.1867 448.188 63.8467 436.893 68.7562C432.169 70.7534 427.925 72.4176 427.446 72.4176C426.966 72.4176 426.624 71.6687 426.624 70.7534C426.624 69.838 426.419 69.0891 426.145 69.0891C425.529 69.0891 422.311 73.749 419.573 78.5754C415.534 85.8149 413.823 98.8794 415.329 110.363C415.876 114.274 416.424 117.686 416.629 117.935C416.835 118.185 420.942 113.775 425.734 108.033C447.367 82.6528 457.703 75.4965 492.822 61.6831C511.168 54.3604 518.014 51.1983 525.818 46.2055C532.527 41.7952 540.947 34.306 540.947 32.7249C540.947 32.1424 540.878 31.6432 540.81 31.7264C540.673 31.8096 534.786 34.1396 527.598 37.052Z" fill="#6C63FF"/>
<path d="M297.858 65.0111C294.025 66.0929 288.617 68.8389 285.605 71.2521L282.866 73.4988L274.446 72.0842C265.684 70.6696 260.207 71.1689 256.168 73.6653C253.704 75.2463 251.856 77.9924 252.266 79.407C252.609 80.572 252.951 80.572 255.278 79.3238C260.139 76.9106 276.363 76.9106 279.033 79.3238C280.06 80.3223 280.676 83.8173 283.962 107.367C286.358 125.091 286.974 128.42 288.206 130.001C289.096 131.332 291.081 132.081 291.081 131.166C291.081 130.916 290.602 126.339 290.054 120.93C289.028 111.444 286.289 80.6552 286.289 78.4916C286.289 77.077 293.477 72.7499 298.406 71.1689C300.597 70.42 304.362 69.9207 306.826 70.0039C311.207 70.2535 311.276 70.1703 311.481 68.0068C311.687 66.2593 311.344 65.5936 309.907 64.9279C307.785 63.9293 301.35 63.9293 297.858 65.0111Z" fill="#6C63FF"/>
<path d="M336.947 73.0002C329.896 74.4981 325.036 76.9112 323.598 79.5741C322.229 82.1537 322.571 82.1537 330.581 79.8237C339.138 77.4105 351.049 76.828 357.073 78.5755C367.136 81.488 374.187 87.2297 381.307 98.2138C383.498 101.626 385.894 105.037 386.578 105.703C387.742 106.868 387.81 106.785 387.331 103.29C386.167 94.0531 377.953 82.3201 368.916 76.7448C360.77 71.752 349.064 70.4206 336.947 73.0002Z" fill="#6C63FF"/>
<path d="M229.47 92.8874C212.698 95.0509 198.527 105.869 192.503 121.097C189.354 129.252 187.232 139.736 188.533 140.818C190.449 142.316 191.476 140.985 192.708 135.326C195.104 124.092 200.102 115.355 207.837 108.698C214.615 102.79 221.734 99.7109 233.166 97.7138C240.628 96.4656 245.489 94.4685 243.982 93.3035C243.093 92.6378 233.44 92.3881 229.47 92.8874Z" fill="#6C63FF"/>
<path d="M344.135 94.0524C335.989 96.216 322.777 104.704 316.479 111.86C311.96 116.936 307.99 132.996 310.249 137.323C311.139 139.071 311.481 138.405 314.425 128.503C317.369 118.684 318.327 117.019 323.94 112.359C333.867 104.121 344.409 99.5445 353.377 99.5445C363.235 99.5445 368.574 103.123 377.405 115.605L381.786 121.846L381.992 118.684C382.197 116.27 381.718 114.689 380.28 112.193C376.857 106.035 371.039 99.8773 365.767 96.7152C361.044 93.886 360.222 93.6364 353.787 93.4699C349.954 93.3867 345.641 93.6364 344.135 94.0524Z" fill="#6C63FF"/>
<path d="M339.822 116.104C326.542 121.68 318.327 134.744 316.615 152.718C315.725 162.204 315.588 161.955 322.776 163.869C337.015 167.78 343.929 167.946 354.061 164.701C363.713 161.539 371.449 153.717 375.899 142.649C379.595 133.496 379.595 133.579 373.708 126.756C370.148 122.678 366.862 119.849 363.166 117.602C358.305 114.69 357.279 114.44 351.323 114.19C345.846 114.024 344.066 114.274 339.822 116.104ZM356.046 119.932C357.895 120.681 358.168 121.264 358.168 123.677C358.168 126.922 356.183 129.835 354.061 129.835C352.213 129.835 349.269 126.256 349.269 124.01C349.269 122.096 351.528 119.017 352.966 119.017C353.445 119.017 354.814 119.433 356.046 119.932Z" fill="#6C63FF"/>
<path d="M223.445 116.104C216.394 118.018 211.945 120.931 206.947 127.089C201.676 133.496 198.527 140.652 197.295 148.974C196.884 151.803 196.679 154.299 196.884 154.549C197.5 155.298 199.554 151.637 202.498 144.647C207.906 132.081 214.135 125.508 223.377 122.762C231.934 120.182 246.242 122.262 256.168 127.421C258.906 128.836 260.549 130.584 263.424 134.911C269.791 144.647 271.844 144.064 267.805 133.746C266.71 130.916 264.93 127.505 263.903 126.34C257.605 119.017 234.193 113.109 223.445 116.104Z" fill="#6C63FF"/>
<path d="M142.461 120.265C142.393 120.514 142.324 120.93 142.256 121.263C141.914 123.677 140.681 123.76 119.802 123.344C97.8275 122.928 77.9751 123.843 55.5897 126.173C43.6783 127.421 31.0823 127.338 24.9896 126.007C21.4299 125.174 22.3198 126.922 26.701 129.252C31.2876 131.748 33.8205 132.664 42.583 134.91C48.1964 136.408 52.9884 136.741 77.4959 137.323C93.104 137.74 107.617 138.488 109.67 138.988C126.169 142.899 136.574 147.226 151.977 156.546C158.138 160.29 163.272 163.12 163.477 162.87C164.094 162.121 162.314 151.054 160.534 144.813C157.522 134.328 153.14 127.421 146.021 121.929C143.214 119.849 142.598 119.516 142.461 120.265Z" fill="#6C63FF"/>
<path d="M228.511 134.079C221.118 136.242 210.439 147.06 206.468 156.546C204.825 160.624 204.757 161.04 205.715 163.453C207.29 167.364 213.177 174.937 217.285 178.348C228.785 188.001 247.885 186.503 265.478 174.687C271.365 170.776 271.434 170.36 268.901 161.955C264.588 147.476 254.662 136.659 243.23 133.996C238.848 132.997 232.208 132.997 228.511 134.079ZM244.599 141.485C246.105 142.483 246.447 147.976 245.078 149.64C243.709 151.304 239.944 150.805 238.369 148.808C236.589 146.478 236.658 145.146 238.712 142.733C240.491 140.486 242.408 140.153 244.599 141.485Z" fill="#6C63FF"/>
<path d="M302.034 163.619C302.034 163.868 303.882 167.363 306.073 171.441L310.18 178.763L306.689 179.346C303.129 179.928 301.692 181.177 298.817 186.003L297.311 188.499L293.272 185.753C290.191 183.756 288.343 183.091 285.673 183.091C283.551 183.091 282.182 182.758 282.182 182.175C282.182 181.676 283.003 177.682 283.962 173.355C284.92 169.028 285.536 165.283 285.399 165.116C284.715 164.284 280.128 170.026 278.827 173.438C276.568 178.93 277.184 186.419 279.786 186.419C280.333 186.419 283.551 187.75 286.837 189.332C291.834 191.828 293.203 192.161 294.709 191.495C295.736 190.996 297.448 190.829 298.611 191.079C300.186 191.495 301.281 190.996 304.019 188.583C312.987 180.594 315.041 174.353 310.865 168.528C309.633 166.864 307.785 164.95 306.758 164.284C304.841 163.119 302.034 162.703 302.034 163.619Z" fill="#6C63FF"/>
</svg>
