<svg width="1080" height="369" viewBox="0 0 1080 369" fill="none" xmlns="http://www.w3.org/2000/svg">
<path d="M643.457 245.763L705.39 184.019L643.457 122.274L662.339 103.455L743.154 184.019L662.339 264.582L643.457 245.763Z" fill="#6C63FF"/>
<path d="M99 258.196L37.4374 196.5L98.9375 134.804L80.1874 116L0 196.5L80.25 277L99 258.196Z" fill="#6C63FF"/>
<path d="M256.144 96.1208H371.362V105.279H266.705V174.203H365.121V183.36H266.705V259.032H372.563V268.19H256.144L256.144 96.1208ZM381.684 96.1208H393.926L448.175 171.793L503.624 96.1208L579.044 0L455.136 179.746L518.987 268.19H506.264L448.175 187.698L389.845 268.19H377.363L441.694 179.746L381.684 96.1208ZM523.547 105.279V96.1208H654.849V105.279H594.359V268.19H583.797V105.279H523.547ZM112 96.1208H125.202L307.252 368.541L232.02 268.19L123.042 109.134L122.562 268.19H112V96.1208Z" fill="black"/>
<path d="M725.258 226.5C729.242 226.5 732.318 227.643 734.486 229.928C736.654 232.154 737.738 234.967 737.738 238.365C737.738 241.705 736.654 244.488 734.486 246.715C732.318 248.883 729.242 249.967 725.258 249.967C721.449 249.967 718.432 248.883 716.205 246.715C713.979 244.547 712.865 241.764 712.865 238.365C712.865 234.967 713.949 232.154 716.117 229.928C718.285 227.643 721.332 226.5 725.258 226.5ZM833.1 203.385H849.008V220.523H833.1V249H811.742V220.523H756.459L755.844 207.516L811.039 121.031H833.1V203.385ZM778.256 203.385H811.742V149.947L810.16 152.76L778.256 203.385ZM946.566 195.123C946.566 213.521 943.109 227.408 936.195 236.783C929.34 246.1 918.881 250.758 904.818 250.758C890.99 250.758 880.561 246.217 873.529 237.135C866.557 227.994 862.982 214.488 862.807 196.617V174.469C862.807 156.07 866.234 142.271 873.09 133.072C880.004 123.873 890.521 119.273 904.643 119.273C918.646 119.273 929.076 123.756 935.932 132.721C942.846 141.686 946.391 155.104 946.566 172.975V195.123ZM925.209 171.217C925.209 159.205 923.568 150.416 920.287 144.85C917.006 139.225 911.791 136.412 904.643 136.412C897.67 136.412 892.543 139.078 889.262 144.41C885.98 149.684 884.252 157.945 884.076 169.195V198.199C884.076 210.152 885.746 219.059 889.086 224.918C892.426 230.777 897.67 233.707 904.818 233.707C911.674 233.707 916.742 231.012 920.023 225.621C923.305 220.172 925.033 211.676 925.209 200.133V171.217ZM1037.71 203.385H1053.62V220.523H1037.71V249H1016.35V220.523H961.068L960.453 207.516L1015.65 121.031H1037.71V203.385ZM982.865 203.385H1016.35V149.947L1014.77 152.76L982.865 203.385Z" fill="black"/>
</svg>
