<svg width="738" height="555" viewBox="0 0 738 555" fill="none" xmlns="http://www.w3.org/2000/svg">
<g clip-path="url(#clip0)">
<path d="M681.416 438.21C680.594 440.71 679.774 443.177 678.957 445.61C677.681 449.39 676.422 453.097 675.18 456.73C674.627 458.34 674.074 459.92 673.535 461.5C667.44 479.07 661.749 494.61 656.916 507.39C652.53 518.97 646.018 528.673 638.062 535.481C630.105 542.29 620.998 545.954 611.693 546.09L504.216 547.74H503.082L493.869 547.88L485.988 548L461.821 548.37H460.843L448.539 548.56H448.164L372.331 549.72L304.642 550.72L296.768 550.84L247.866 551.59H247.81L216.095 552.07H215.755L115.471 553.6L85.4713 554.06C82.9169 554.101 80.363 553.921 77.8243 553.52C76.9596 553.38 76.095 553.22 75.2375 553.03C61.246 549.983 48.4169 540.263 38.8874 525.49C25.9817 505.46 16.5912 482.09 10.2837 456.73C9.37178 453.07 8.52132 449.364 7.73228 445.61C-14.1033 341.46 12.5161 207.09 60.4253 117.17C62.4333 113.41 64.4744 109.744 66.5486 106.17L66.5982 106.09C81.3324 80.5702 97.8526 59.2502 115.45 44.0902C146.633 17.1802 181.183 9.60025 215.166 32.1903C243.919 51.3102 270.765 60.3002 296.789 62.7402C299.418 62.9802 302.048 63.1602 304.663 63.2702C364.358 65.9202 420.304 35.5702 486.002 15.9802C488.617 15.2002 491.24 14.4302 493.883 13.7002C540.75 0.540245 592.742 -6.39975 654.57 8.19025C660.994 9.67091 667.332 11.8099 673.535 14.5902C676.262 15.8302 678.888 17.1636 681.416 18.5902C710.927 35.5302 727.022 66.8302 733.861 106.05C734.509 109.69 735.068 113.394 735.541 117.16C747.667 211.5 712.153 345.32 681.416 438.21Z" fill="#F2F2F2"/>
<path opacity="0.1" d="M352.246 445.61C351.96 449.35 351.517 453.063 350.92 456.73H417.327V445.61H352.246ZM296.789 508.42L304.662 508.33V480.86C301.962 480.69 299.333 480.52 296.789 480.34V508.42ZM131.714 445.61V456.73H272.395V445.61H131.714ZM733.896 106.09H681.451V18.5999C678.923 17.1532 676.297 15.8199 673.57 14.5999V106.09H493.882V13.6699C491.239 14.3999 488.617 15.1699 486.002 15.9499V106.09H304.662V63.2399C302.047 63.1299 299.418 62.9499 296.789 62.7099V106.09H115.449V44.0899C97.852 59.2499 81.3318 80.5699 66.5976 106.09H66.548V106.17C64.4691 109.77 62.428 113.437 60.4247 117.17H66.548V445.61H7.72461C8.50892 449.363 9.35938 453.07 10.276 456.73H66.5409V550.35C69.3718 551.572 72.2614 552.504 75.1873 553.14C76.0448 553.33 76.9095 553.49 77.7741 553.63C80.3129 554.031 82.8667 554.211 85.4211 554.17L115.421 553.71V456.71H296.789V550.92L304.662 550.8V456.73H486.002V548.09L493.882 547.97V456.73H673.535V461.5C674.073 459.92 674.626 458.34 675.179 456.73C676.422 453.097 677.681 449.39 678.957 445.61C679.774 443.183 680.594 440.717 681.416 438.21V117.21H735.576C735.099 113.417 734.539 109.71 733.896 106.09ZM115.449 445.61V117.17H296.789V445.61H115.449ZM304.677 445.61V117.17H486.002V445.61H304.677ZM673.549 445.61H493.882V117.17H673.535L673.549 445.61Z" fill="black"/>
<path d="M611.685 533.65V546.65L504.017 548.05L502.869 548.08L461.948 548.61L460.97 548.63L448.532 548.78H448.163L372.345 549.77L247.887 551.4H247.781L216.137 551.82L215.797 551.83L75.1875 553.65V538.65L108.249 510.65L174.585 509.87L176.002 509.86L176.47 509.85L177.888 509.82L209.737 509.45L211.162 509.44L211.615 509.43L213.033 509.42L223.245 509.3L223.515 509.29L248.709 508.99H248.915L445.513 506.65L450.325 506.6H450.807L454.478 506.55L481.161 506.24L482.579 506.21L483.89 506.19H484.57L492.869 506.1L494.513 506.07L496.718 506.05L503.628 505.96L514.591 505.83L516.009 505.81L518.475 505.79H518.936L571.884 505.15L611.685 533.65Z" fill="#65617D"/>
<path opacity="0.2" d="M611.685 533.65V546.65L504.017 548.05L502.869 548.08L461.948 548.61L460.97 548.63L448.532 548.78H448.163L372.345 549.77L247.887 551.4H247.781L216.137 551.82L215.797 551.83L75.1875 553.65V538.65L108.249 510.65L174.585 509.87L176.002 509.86L176.47 509.85L177.888 509.82L209.737 509.45L211.162 509.44L211.615 509.43L213.033 509.42L223.245 509.3L223.515 509.29L248.709 508.99H248.915L445.513 506.65L450.325 506.6H450.807L454.478 506.55L481.161 506.24L482.579 506.21L483.89 506.19H484.57L492.869 506.1L494.513 506.07L496.718 506.05L503.628 505.96L514.591 505.83L516.009 505.81L518.475 505.79H518.936L571.884 505.15L611.685 533.65Z" fill="black"/>
<path d="M209.851 483.66V508.15C209.851 509.31 209.619 510.446 209.179 511.427C208.74 512.408 208.113 513.192 207.371 513.69C206.818 514.068 206.213 514.273 205.599 514.29L180.865 515.03C180.204 515.053 179.549 514.857 178.951 514.46C178.195 513.971 177.555 513.187 177.107 512.199C176.658 511.212 176.42 510.063 176.421 508.89V483.66H209.851Z" fill="#3F3D56"/>
<path opacity="0.1" d="M209.851 483.66V508.15C209.851 509.31 209.619 510.446 209.179 511.427C208.74 512.408 208.113 513.192 207.371 513.69C206.818 514.068 206.213 514.273 205.599 514.29L180.865 515.03C180.204 515.053 179.549 514.857 178.951 514.46C178.195 513.971 177.555 513.187 177.107 512.199C176.658 511.212 176.42 510.063 176.421 508.89V483.66H209.851Z" fill="black"/>
<path d="M211.268 483.66V508.15C211.268 509.31 211.036 510.446 210.596 511.427C210.157 512.408 209.53 513.192 208.788 513.69C208.235 514.068 207.63 514.273 207.016 514.29L182.282 515.03C181.621 515.053 180.966 514.857 180.368 514.46C179.612 513.971 178.972 513.187 178.524 512.199C178.075 511.212 177.837 510.063 177.838 508.89V483.66H211.268Z" fill="#3F3D56"/>
<path d="M516.009 483.65H482.579V515.15H516.009V483.65Z" fill="#3F3D56"/>
<path opacity="0.1" d="M516.009 483.65H482.579V515.15H516.009V483.65Z" fill="black"/>
<path d="M514.591 483.65H481.161V515.15H514.591V483.65Z" fill="#3F3D56"/>
<path opacity="0.1" d="M211.261 483.65V488.62L177.831 489.88V483.65H211.261Z" fill="black"/>
<path d="M270.269 312.36V480.56C270.26 481.587 269.972 482.57 269.464 483.305C268.956 484.04 268.267 484.472 267.54 484.51L131.715 489.61H131.679C130.94 489.597 130.233 489.177 129.71 488.439C129.187 487.701 128.889 486.704 128.88 485.66V312.36C128.889 311.317 129.187 310.319 129.71 309.581C130.233 308.843 130.94 308.423 131.679 308.41H267.469C268.209 308.423 268.916 308.843 269.439 309.581C269.962 310.319 270.26 311.317 270.269 312.36Z" fill="#65617D"/>
<path opacity="0.1" d="M131.715 308.41V489.61H131.679C130.94 489.597 130.233 489.177 129.71 488.439C129.187 487.701 128.889 486.704 128.88 485.66V312.36C128.889 311.317 129.187 310.319 129.71 309.581C130.233 308.843 130.94 308.423 131.679 308.41H131.715Z" fill="black"/>
<path d="M137.909 319.15H263.706V467.4L137.909 471.4V319.15Z" fill="#6C63FF"/>
<path opacity="0.1" d="M514.591 483.65V490.06L481.161 488.8V483.65H514.591Z" fill="black"/>
<path d="M558.716 312.36V485.66C558.707 486.712 558.404 487.717 557.873 488.456C557.343 489.196 556.627 489.61 555.881 489.61L420.027 484.51C419.3 484.472 418.611 484.04 418.103 483.305C417.595 482.57 417.307 481.587 417.299 480.56V312.36C417.308 311.317 417.606 310.319 418.129 309.581C418.652 308.843 419.359 308.423 420.098 308.41H555.888C556.633 308.413 557.347 308.828 557.876 309.568C558.405 310.307 558.707 311.31 558.716 312.36Z" fill="#65617D"/>
<path opacity="0.1" d="M558.717 312.36V485.66C558.707 486.712 558.405 487.717 557.874 488.456C557.343 489.196 556.628 489.61 555.882 489.61V308.41C556.628 308.41 557.343 308.825 557.874 309.564C558.405 310.303 558.707 311.308 558.717 312.36Z" fill="black"/>
<path d="M549.673 319.15H423.876V467.4L549.673 471.4V319.15Z" fill="#6C63FF"/>
<path d="M413.783 312.36V480.56C413.775 481.587 413.487 482.57 412.979 483.305C412.471 484.04 411.782 484.472 411.055 484.51L275.229 489.61C274.484 489.61 273.768 489.196 273.237 488.456C272.707 487.717 272.404 486.712 272.395 485.66V312.36C272.404 311.317 272.702 310.319 273.225 309.581C273.748 308.843 274.454 308.423 275.194 308.41H410.984C411.724 308.423 412.43 308.843 412.953 309.581C413.476 310.319 413.774 311.317 413.783 312.36Z" fill="#65617D"/>
<path d="M281.424 319.15H407.221V467.4L281.424 471.4V319.15Z" fill="#6C63FF"/>
<path opacity="0.1" d="M611.685 533.65V546.65L504.017 548.05L502.869 548.08L461.948 548.61L460.97 548.63L448.532 548.78H448.163L372.345 549.77L247.887 551.4H247.781L216.137 551.82L215.797 551.83L75.1875 553.65V538.65L218.71 537.32H219.05L248.1 537.04H248.235L448.858 535.17H449.063L449.184 535.16H449.517L452.912 535.13H453.947L506.739 534.63L509.857 534.61L510.552 534.6L611.685 533.65Z" fill="black"/>
<path d="M345.329 349.48C365.42 349.48 381.707 326.499 381.707 298.15C381.707 269.801 365.42 246.82 345.329 246.82C325.237 246.82 308.95 269.801 308.95 298.15C308.95 326.499 325.237 349.48 345.329 349.48Z" fill="#FBBEBE"/>
<path d="M381.714 377.16C381.714 377.16 311.197 389.16 317.93 377.16C320.368 372.82 321.041 359.96 320.906 345.31C320.864 340.86 320.75 336.25 320.587 331.66C319.808 309.66 317.93 288.16 317.93 288.16C317.93 288.16 379.588 247.16 372.501 279.66C369.666 292.79 370.594 311.23 372.749 328.54C373.38 333.59 374.11 338.54 374.875 343.24C376.743 354.704 379.026 366.025 381.714 377.16Z" fill="#FBBEBE"/>
<path d="M358.702 373.09C366.859 370.96 375.499 367.09 383.174 371.55C385.194 372.72 387.051 374.43 389.12 375.41C391.19 376.39 393.458 376.63 395.612 377.32C403.181 379.74 409.319 387.87 413.259 397.32C417.2 406.77 419.241 417.46 421.239 428.04L426.129 453.87C430.382 476.32 434.634 498.96 435.619 522.17C376.418 526.951 317.081 527.429 257.845 523.6C261.7 513.26 265.641 502.29 265.315 490.6C264.989 478.91 260.219 467.38 261.941 455.86C263.04 448.52 266.597 442.47 268.773 435.64C274.974 416.12 270.148 389.85 281.048 374.99C285.952 368.31 293.096 365.78 299.921 366.1C308.624 366.51 317.533 370.34 326.144 372.21C337.171 374.57 347.589 375.97 358.702 373.09Z" fill="#FF6584"/>
<path opacity="0.1" d="M451.473 484.26L451.402 485.69V485.79L451.282 488.09L450.339 506.6L449.198 528.9L448.872 535.18L448.163 548.62V548.79L372.331 549.79L247.887 551.69V552.53H247.788V551.69V551.41L248.107 537.05L248.717 508.99L249.241 485.2L249.291 482.83C249.322 481.4 249.559 479.993 249.988 478.696C250.417 477.4 251.029 476.24 251.787 475.288C252.544 474.337 253.431 473.613 254.394 473.161C255.356 472.709 256.374 472.539 257.384 472.66C260.729 473.06 265.074 473.55 270.269 474.07L272.395 474.29C302.395 477.23 357.838 481.03 413.784 476.29C414.96 476.2 416.144 476.1 417.327 475.98C426.002 475.21 434.669 474.22 443.252 472.98C444.337 472.82 445.434 472.997 446.465 473.499C447.496 474.002 448.437 474.817 449.22 475.887C450.004 476.958 450.612 478.258 451.001 479.696C451.39 481.134 451.552 482.675 451.473 484.21V484.26Z" fill="black"/>
<path d="M247.866 552.53V551.69L372.331 549.78L448.163 548.78H448.376V548.61L449.085 535.17L449.39 529.17L450.552 506.56L451.466 488.66V488.22C451.508 487.395 451.482 486.566 451.388 485.75C451.392 485.717 451.392 485.683 451.388 485.65C451.193 483.963 450.707 482.369 449.971 481.01C449.19 479.598 448.168 478.49 447 477.79C445.832 477.09 444.557 476.822 443.295 477.01C434.712 478.25 426.044 479.24 417.37 480.01C416.186 480.13 415.003 480.23 413.826 480.32C357.88 485.01 302.437 481.21 272.437 478.32L270.311 478.1C265.116 477.58 260.772 477.1 257.427 476.69C255.587 476.471 253.754 477.222 252.283 478.797C250.812 480.372 249.806 482.66 249.461 485.22C249.389 485.762 249.347 486.31 249.333 486.86L248.851 509.02L248.192 537.09L247.88 551.45V551.73V552.57L247.866 552.53Z" fill="#3F3D56"/>
<path opacity="0.1" d="M451.686 491.27L450.814 506.6L449.517 529.45L449.191 535.17L448.483 547.98L448.44 548.62V548.79L448.334 550.27L448.412 548.79H448.206L372.374 549.79L247.888 551.69V551.41L248.235 537.05L248.944 508.99L249.397 490.34C249.42 489.279 249.63 488.243 250.008 487.326C250.387 486.409 250.923 485.64 251.566 485.09C252.368 484.396 253.307 484.081 254.245 484.19C255.733 484.36 257.562 484.56 259.695 484.78C263.161 485.14 267.434 485.56 272.409 486C281.623 486.82 293.182 487.7 306.428 488.42C343.281 490.42 393.033 491.09 440.29 485.25C442.416 484.99 444.613 484.7 446.76 484.41C447.61 484.291 448.467 484.52 449.227 485.07C449.442 485.221 449.646 485.402 449.836 485.61C450.453 486.241 450.942 487.089 451.254 488.07C451.326 488.265 451.385 488.47 451.431 488.68C451.644 489.509 451.731 490.391 451.686 491.27Z" fill="black"/>
<path opacity="0.1" d="M211.268 504.96V508.15C211.268 509.31 211.036 510.446 210.596 511.427C210.157 512.408 209.53 513.192 208.788 513.69L180.368 514.46C179.612 513.971 178.972 513.186 178.524 512.199C178.075 511.211 177.837 510.063 177.838 508.89V505.89L211.268 504.96Z" fill="black"/>
<path d="M211.615 515.57L174.585 516.57V507.9L211.615 506.9V515.57Z" fill="#3F3D56"/>
<path opacity="0.1" d="M211.615 515.57L174.585 516.57V507.9L211.615 506.9V515.57Z" fill="black"/>
<path d="M213.033 515.57L176.003 516.57V507.9L213.033 506.9V515.57Z" fill="#3F3D56"/>
<path opacity="0.1" d="M481.374 506.96V510.15C481.374 511.31 481.606 512.446 482.046 513.427C482.485 514.408 483.112 515.192 483.855 515.69L512.274 516.46C513.03 515.971 513.67 515.186 514.119 514.199C514.567 513.211 514.805 512.063 514.804 510.89V507.89L481.374 506.96Z" fill="black"/>
<path opacity="0.1" d="M481.02 517.57L518.05 518.57V509.9L481.02 508.9V517.57Z" fill="black"/>
<path d="M479.603 517.57L516.633 518.57V509.9L479.603 508.9V517.57Z" fill="#3F3D56"/>
<path d="M322.317 313.88C322.374 320.88 320.078 327.48 318.129 333.95C311.033 357.518 307.959 383.109 309.156 408.66C309.674 419.66 310.985 430.66 309.674 441.56C308.362 452.46 303.699 463.33 296.208 466.46C308.632 476.91 325.45 475.81 337.143 463.8C343.373 457.4 348.015 448.47 352.558 439.69C352.018 455.462 348.782 470.816 343.125 484.44C353.35 483.163 363.272 478.869 372.246 471.837C381.221 464.805 389.049 455.192 395.223 443.62C398.277 437.81 400.935 431.43 402.111 424.39C404.301 411.39 401.247 397.88 398.915 384.89C396.967 374.031 395.506 363.009 394.542 351.89C394.238 348.33 393.99 344.67 394.613 341.19C395.322 337.12 397.214 333.68 398.61 329.97C402.579 319.43 402.671 306.67 400.637 295.09C398.603 283.51 394.62 272.83 390.673 262.28C387.512 253.82 384.082 244.97 378.299 240C374.684 236.9 370.503 235.61 366.335 234.36L348.355 228.93C344.422 227.74 340.375 226.55 336.399 227.42C329.688 228.9 324.961 235.74 320.808 242.76C317.555 248.22 309.603 258.47 309.043 265.62C308.533 272.21 312.657 283.25 313.359 290.2C314.28 299.2 314.932 296.2 318.533 301.72C320.808 305.14 322.275 309.09 322.317 313.88Z" fill="#3F3D56"/>
<path d="M212.799 333.59H142.211C142.117 333.59 142.027 333.537 141.96 333.443C141.894 333.35 141.856 333.222 141.856 333.09C141.856 332.957 141.894 332.83 141.96 332.736C142.027 332.643 142.117 332.59 142.211 332.59H212.799C212.893 332.59 212.983 332.643 213.049 332.736C213.116 332.83 213.153 332.957 213.153 333.09C213.153 333.222 213.116 333.35 213.049 333.443C212.983 333.537 212.893 333.59 212.799 333.59Z" fill="#F2F2F2"/>
<path d="M212.799 342.59H142.211C142.117 342.59 142.027 342.537 141.96 342.443C141.894 342.35 141.856 342.222 141.856 342.09C141.856 341.957 141.894 341.83 141.96 341.736C142.027 341.642 142.117 341.59 142.211 341.59H212.799C212.893 341.59 212.983 341.642 213.049 341.736C213.116 341.83 213.153 341.957 213.153 342.09C213.153 342.222 213.116 342.35 213.049 342.443C212.983 342.537 212.893 342.59 212.799 342.59Z" fill="#F2F2F2"/>
<path d="M212.799 351.59H142.211C142.117 351.59 142.027 351.537 141.96 351.443C141.894 351.35 141.856 351.222 141.856 351.09C141.856 350.957 141.894 350.83 141.96 350.736C142.027 350.642 142.117 350.59 142.211 350.59H212.799C212.893 350.59 212.983 350.642 213.049 350.736C213.116 350.83 213.153 350.957 213.153 351.09C213.153 351.222 213.116 351.35 213.049 351.443C212.983 351.537 212.893 351.59 212.799 351.59Z" fill="#F2F2F2"/>
</g>
<defs>
<clipPath id="clip0">
<rect width="738" height="554.17" fill="white"/>
</clipPath>
</defs>
</svg>
