<svg width="687" height="370" viewBox="0 0 687 370" fill="none" xmlns="http://www.w3.org/2000/svg">
<g clip-path="url(#clip0)">
<path opacity="0.1" d="M679.718 343.283C677.052 349.777 673.769 356.008 669.915 361.892C668.107 364.698 666.123 367.39 663.977 369.953C663.957 369.979 663.935 370.003 663.911 370.024H0L0.0896085 369.953C0.687 369.493 4.19369 366.692 9.64787 361.892C13.5608 358.455 18.4713 353.985 23.9853 348.608C69.0823 304.826 155.71 201.195 83.5631 106.261C16.494 18.008 88.7066 1.99303 136.343 0.123838C154.645 -0.583862 172.903 2.3623 190.024 8.78581C212.032 17.0409 252.254 29.6948 304.658 35.497C306.378 35.6857 308.111 35.8744 309.867 36.0454C337.611 38.8336 365.542 39.3346 393.37 37.5431C394.189 37.4959 395.013 37.4369 395.843 37.378C423.373 35.47 450.692 31.2985 477.519 24.9069C479.257 24.4882 480.972 24.0931 482.68 23.6981C572.068 3.28436 654.472 72.8573 633.868 151.481C626.251 180.563 628.187 211.561 653.582 236.639C695.16 277.572 690.124 317.887 679.718 343.283Z" fill="#6C63FF"/>
<path d="M679.718 343.283C677.052 349.777 673.769 356.008 669.915 361.892C668.107 364.698 666.124 367.39 663.977 369.953H0.0898438C0.687235 369.493 4.19392 366.692 9.6481 361.892C13.561 358.455 18.4716 353.985 23.9855 348.607L93.9579 334.338C94.862 334.154 95.7828 334.061 96.7059 334.061L171.302 333.955H171.38L208.328 333.907H208.412L239.596 333.872H260.009H280.917L366.595 333.754H366.733H373.37H385.031H399.589H403.46L418.174 333.589H423.037L465.834 333.53H479.502H486.074L535.508 333.465H550.227L597.051 333.4L636.574 333.353C637.675 333.354 638.772 333.482 639.842 333.736L679.718 343.283Z" fill="#454B69"/>
<path opacity="0.4" d="M9.64811 361.892H669.915C668.107 364.698 666.124 367.39 663.977 369.953H0.0898438C0.675287 369.463 4.18198 366.663 9.64811 361.892Z" fill="black"/>
<path d="M438.02 178.511L436.693 178.764L376.739 190.133C359.325 193.435 341.66 196.755 323.972 195.487C311.158 194.567 299.186 190.817 286.874 187.527C279.914 185.663 272.536 184.92 270.176 177.231C266.921 166.618 272.22 150.903 273.468 140.148C274.663 129.593 275.368 118.773 273.241 108.342C272.769 105.998 272.146 103.686 271.377 101.42C269.245 95.1755 265.893 88.6834 267.703 82.3447C269.131 77.315 273.486 73.724 277.56 70.3984C285.541 63.9122 293.69 56.6418 296.856 46.9185C298.409 42.2013 298.702 37.1244 300.375 32.4425C303.547 23.5388 311.516 16.8816 320.381 13.3555C329.247 9.82942 338.996 9.08057 348.56 9.08057C357.005 9.08103 365.441 9.63455 373.812 10.7375C382.94 11.9168 392.152 13.8567 400.175 18.3263C408.198 22.7958 414.96 30.1193 416.83 39.0466C419.477 51.671 412.129 65.1151 416.071 77.3739C418.055 83.5712 422.643 88.5773 425.827 94.2497C428.423 98.9947 430.026 104.207 430.539 109.576C431.052 114.945 430.465 120.361 428.814 125.501C425.002 137.159 415.671 148.952 420.45 160.255C423.491 167.443 431.257 171.282 436.669 176.978C437.151 177.489 437.601 178 438.02 178.511Z" fill="#454B69"/>
<path opacity="0.1" d="M436.693 177.025V178.764L376.739 190.133C359.325 193.435 341.66 196.755 323.971 195.487C311.157 194.567 299.185 190.817 286.873 187.527C279.914 185.663 272.536 184.92 270.176 177.231C266.92 166.618 272.219 150.903 273.468 140.148C274.662 129.594 293.056 91.0598 290.929 80.6289L400.849 85.3461C401.59 91.107 430.641 120.023 428.831 125.549C425.02 137.206 415.689 148.999 420.468 160.303C423.514 167.49 431.28 171.329 436.693 177.025Z" fill="black"/>
<path d="M324.384 147.849C325.035 151.499 325.382 155.514 323.494 158.699C320.979 162.968 315.495 164.33 310.59 165.297L293.565 168.658C292.406 168.888 291.175 169.147 290.309 169.931C289.287 170.834 288.941 172.261 288.791 173.605C288.104 179.69 290.285 185.687 292.274 191.483C296.295 203.223 299.67 215.211 304.754 226.538C309.837 237.865 316.815 248.679 326.774 256.25C336.732 263.822 349.91 267.855 362.103 264.895C372.725 262.318 381.435 254.918 388.944 247.07C395.139 240.583 400.934 233.508 403.939 225.093C406.011 219.315 406.687 213.159 407.338 207.062C408.345 197.714 409.353 188.366 410.36 179.018C410.832 174.631 411.143 169.696 408.258 166.329C406.991 164.849 405.271 163.864 403.514 162.95C396.979 159.524 390.097 156.694 384.016 152.566C377.934 148.439 372.54 142.754 370.694 135.702C369.589 131.469 369.786 126.857 367.904 122.913C365.801 118.49 361.333 115.495 356.553 114.18C351.774 112.865 346.732 113.042 341.81 113.59C336.887 114.139 317.914 115.542 315.877 121.02C314.784 123.968 319.318 130.295 320.393 133.196C322.163 137.953 323.499 142.857 324.384 147.849Z" fill="#EFB7B9"/>
<path opacity="0.1" d="M324.384 147.849C325.035 151.499 325.382 155.514 323.494 158.699C320.979 162.968 315.495 164.33 310.59 165.297L293.565 168.658C292.406 168.888 291.175 169.147 290.309 169.931C289.287 170.834 288.941 172.261 288.791 173.605C288.104 179.69 290.285 185.687 292.274 191.483C296.295 203.223 299.67 215.211 304.754 226.538C309.837 237.865 316.815 248.679 326.774 256.25C336.732 263.822 349.91 267.855 362.103 264.895C372.725 262.318 381.435 254.918 388.944 247.07C395.139 240.583 400.934 233.508 403.939 225.093C406.011 219.315 406.687 213.159 407.338 207.062C408.345 197.714 409.353 188.366 410.36 179.018C410.832 174.631 411.143 169.696 408.258 166.329C406.991 164.849 405.271 163.864 403.514 162.95C396.979 159.524 390.097 156.694 384.016 152.566C377.934 148.439 372.54 142.754 370.694 135.702C369.589 131.469 369.786 126.857 367.904 122.913C365.801 118.49 361.333 115.495 356.553 114.18C351.774 112.865 346.732 113.042 341.81 113.59C336.887 114.139 317.914 115.542 315.877 121.02C314.784 123.968 319.318 130.295 320.393 133.196C322.163 137.953 323.499 142.857 324.384 147.849Z" fill="black"/>
<path d="M365.359 211.968L375.341 191.106C380.019 181.329 384.798 171.058 384.302 160.261C384.207 158.115 384.183 155.432 386.094 154.459C386.924 154.125 387.829 154.011 388.717 154.129C399.226 154.659 409.597 156.73 419.489 160.273C421.406 160.957 423.372 161.747 424.716 163.257C426.06 164.766 426.604 166.795 427.063 168.74C428.63 175.32 429.774 181.99 430.487 188.712C432.279 205.352 431.389 222.139 430.487 238.832L427.834 289.796C427.848 290.519 427.699 291.236 427.398 291.895C426.741 293.074 425.259 293.469 423.927 293.693C418.796 294.56 413.551 294.383 408.353 294.189C371.793 292.821 335.041 290.721 298.72 295.097C298.883 289.794 298.798 284.487 298.463 279.176C297.023 256.245 291.002 233.873 285.088 211.655C281.641 198.683 278.301 184.531 283.851 172.308C284.667 170.377 285.84 168.614 287.31 167.107C289.669 164.825 292.889 163.622 296.08 162.761C301.582 161.284 307.282 160.648 312.98 160.874L350.645 241.816C352.366 245.519 353.782 249.416 355.496 253.072C357.037 246.757 355.185 239.357 357.037 232.511C359.033 225.406 362.175 218.607 365.359 211.968Z" fill="white"/>
<path d="M361.422 267.66C368.161 268.079 374.708 264.671 379.344 259.853C383.979 255.036 387.038 248.927 389.625 242.753C393.343 233.953 396.299 224.858 398.46 215.565C400.252 207.663 401.525 199.485 400.288 191.477C398.58 180.421 392.241 170.374 391.16 159.241C390.975 157.295 391.094 155.019 392.678 153.846C393.657 153.121 394.948 153.02 396.166 152.949C407.433 152.289 419.811 152.413 428.539 159.471C431.197 161.617 433.354 164.3 435.953 166.511C442.142 171.818 450.887 174.519 454.86 181.565C456.246 184.018 456.909 186.795 457.877 189.437C460.159 195.687 464.108 201.183 468.032 206.59C464.227 222.44 459.854 238.301 456.049 254.151C453.821 263.45 451.574 272.784 448.074 281.688C445.78 287.525 442.894 293.481 443.599 299.731C443.88 302.19 444.71 304.543 445.433 306.913C447.967 315.233 449.155 323.895 448.952 332.581L278.492 332.993C286.658 321.436 289.054 307.261 288.224 293.198C287.823 286.458 286.282 279.677 282.847 273.846C277.435 264.706 267.912 258.751 258.527 253.65C251.956 250.112 244.901 270.019 237.798 267.737C238.945 259.729 239.471 228.82 238.993 220.759C238.837 218.118 238.598 215.405 239.423 212.882C239.984 211.154 241.018 209.609 241.717 207.929C244.519 201.201 241.848 192.598 246.376 186.872C249.507 182.892 254.997 181.76 259.459 179.307C264.041 176.783 267.584 172.821 271.574 169.436C279.405 162.873 288.972 158.657 299.15 157.283C302.119 161.906 303.924 167.163 304.413 172.614C304.718 176.04 304.497 179.513 304.98 182.921C305.644 187.538 307.579 191.872 309.497 196.141C317.484 213.943 325.501 231.798 335.621 248.514C338.482 253.231 341.595 257.949 345.74 261.622C349.886 265.296 355.854 267.92 361.422 267.66Z" fill="#6C63FF"/>
<path opacity="0.1" d="M361.422 267.66C368.161 268.079 374.708 264.671 379.344 259.853C383.979 255.036 387.038 248.927 389.625 242.753C393.343 233.953 396.299 224.858 398.46 215.565C400.252 207.663 401.525 199.485 400.288 191.477C398.58 180.421 392.241 170.374 391.16 159.241C390.975 157.295 391.094 155.019 392.678 153.846C393.657 153.121 394.948 153.02 396.166 152.949C407.433 152.289 419.811 152.413 428.539 159.471C431.197 161.617 433.354 164.3 435.953 166.511C442.142 171.818 450.887 174.519 454.86 181.565C456.246 184.018 456.909 186.795 457.877 189.437C460.159 195.687 464.108 201.183 468.032 206.59C464.227 222.44 459.854 238.301 456.049 254.151C453.821 263.45 451.574 272.784 448.074 281.688C445.78 287.525 442.894 293.481 443.599 299.731C443.88 302.19 444.71 304.543 445.433 306.913C447.967 315.233 449.155 323.895 448.952 332.581L278.492 332.993C286.658 321.436 289.054 307.261 288.224 293.198C287.823 286.458 286.282 279.677 282.847 273.846C277.435 264.706 267.912 258.751 258.527 253.65C251.956 250.112 244.901 270.019 237.798 267.737C238.945 259.729 239.471 228.82 238.993 220.759C238.837 218.118 238.598 215.405 239.423 212.882C239.984 211.154 241.018 209.609 241.717 207.929C244.519 201.201 241.848 192.598 246.376 186.872C249.507 182.892 254.997 181.76 259.459 179.307C264.041 176.783 267.584 172.821 271.574 169.436C279.405 162.873 288.972 158.657 299.15 157.283C302.119 161.906 303.924 167.163 304.413 172.614C304.718 176.04 304.497 179.513 304.98 182.921C305.644 187.538 307.579 191.872 309.497 196.141C317.484 213.943 325.501 231.798 335.621 248.514C338.482 253.231 341.595 257.949 345.74 261.622C349.886 265.296 355.854 267.92 361.422 267.66Z" fill="black"/>
<path d="M352.408 146.511C380.689 146.511 403.616 123.881 403.616 95.9656C403.616 68.0505 380.689 45.4208 352.408 45.4208C324.126 45.4208 301.199 68.0505 301.199 95.9656C301.199 123.881 324.126 146.511 352.408 146.511Z" fill="#EFB7B9"/>
<path d="M325.537 163.321C326.941 150.243 321.433 137.448 315.196 125.826C312.209 120.271 309.007 114.734 307.507 108.631C306.008 102.528 306.438 95.6178 310.273 90.5998C313.535 86.3308 318.709 84.0252 323.494 81.5192C337.001 74.4434 349.349 64.042 355.287 50.1321C351.929 51.9364 352.802 57.3199 355.765 59.6962C358.728 62.0725 362.766 62.5324 366.41 63.6646C379.696 67.7921 387.665 80.8706 394.057 93.0882C395.103 95.0812 396.166 97.1862 396.154 99.4328C396.142 101.679 395.103 103.672 394.016 105.583C390.861 111.126 387.002 116.45 385.569 122.647C383.926 129.723 385.658 137.165 387.91 144.105C390.3 151.487 393.472 158.929 399.207 164.224C404.942 169.519 413.837 172.149 420.892 168.729C413.849 156.776 406.555 143.421 409.303 129.871C410.629 123.384 414.196 117.488 415.713 111.037C418.604 98.7311 413.789 86.0713 409.064 74.3255L394.942 39.2707C392.785 33.9108 390.33 28.1912 385.383 25.1545C382.038 23.1084 377.988 22.5777 374.069 22.2062C361.452 21.0977 348.381 21.4633 336.636 26.0979C315.238 34.5358 301.82 55.3387 291.175 75.5165C287.985 81.5605 284.836 87.9818 284.968 94.7981C285.04 98.5365 286.097 102.175 286.957 105.819C290.458 120.654 290.649 136.027 290.828 151.257C290.966 162.944 290.35 173.959 285.171 184.602C292.268 185.994 302.561 189.75 309.586 187.002C318.744 183.429 324.384 172.42 325.537 163.321Z" fill="#454B69"/>
<g opacity="0.1">
<path opacity="0.1" d="M290.799 151.01C290.822 149.347 290.822 147.668 290.799 145.974C290.619 130.743 290.428 115.371 286.927 100.535C286.145 97.6485 285.535 94.7188 285.099 91.7615C284.977 92.7769 284.923 93.7993 284.938 94.8218C285.01 98.5602 286.067 102.198 286.927 105.842C290.41 120.59 290.625 135.867 290.799 151.01Z" fill="black"/>
<path opacity="0.1" d="M415.713 111.037C416.497 107.592 416.759 104.051 416.49 100.53C416.372 102.281 416.113 104.02 415.713 105.73C414.196 112.216 410.629 118.06 409.303 124.564C408.731 127.432 408.571 130.366 408.825 133.279C408.92 132.135 409.08 130.997 409.303 129.871C410.629 123.367 414.196 117.5 415.713 111.037Z" fill="black"/>
<path opacity="0.1" d="M395.689 96.7263C395.98 95.8888 396.137 95.0114 396.155 94.1259C396.155 91.8794 395.103 89.7743 394.058 87.7813C387.666 75.5637 379.72 62.4971 366.41 58.3577C362.766 57.2256 358.734 56.7657 355.765 54.3894C355.001 53.7399 354.376 52.9464 353.927 52.0554C353.477 51.1643 353.213 50.1937 353.148 49.2004C346.673 60.9345 335.549 69.909 323.494 76.2123C318.715 78.7184 313.535 81.0239 310.274 85.293C307.209 89.3026 306.319 94.521 306.851 99.5684C307.152 96.329 308.335 93.2303 310.274 90.5998C313.535 86.3307 318.709 84.0252 323.494 81.5192C335.549 75.2158 346.673 66.2413 353.148 54.5073C353.213 55.5006 353.477 56.4712 353.927 57.3622C354.376 58.2532 355.001 59.0468 355.765 59.6962C358.752 62.0548 362.766 62.5324 366.41 63.6646C379.696 67.7921 387.666 80.8706 394.058 93.0881C394.706 94.2526 395.251 95.4698 395.689 96.7263Z" fill="black"/>
<path opacity="0.1" d="M399.207 158.917C393.472 153.61 390.312 146.18 387.91 138.798C386.469 134.651 385.507 130.357 385.043 125.997C384.487 132.052 386.01 138.25 387.91 144.105C390.3 151.487 393.472 158.929 399.207 164.224C404.942 169.519 413.837 172.149 420.892 168.729C420.044 167.296 419.201 165.839 418.365 164.371C411.812 166.193 404.285 163.599 399.207 158.917Z" fill="black"/>
<path opacity="0.1" d="M325.537 158.015C324.384 167.113 318.745 178.122 309.563 181.719C303.189 184.213 294.114 181.347 287.191 179.761C286.595 181.416 285.913 183.04 285.147 184.626C292.244 186.017 302.537 189.773 309.563 187.025C318.745 183.429 324.384 172.42 325.537 163.321C325.775 161.045 325.819 158.753 325.668 156.47C325.633 156.983 325.579 157.502 325.537 158.015Z" fill="black"/>
</g>
<path d="M397.923 304.213C388.693 302.768 379.326 299.979 370.174 301.854C364.869 302.939 360.018 305.545 355.609 308.694C358.035 310.61 360.866 312.32 362.408 314.986C363.364 316.83 364.083 318.785 364.546 320.805C365.514 324.343 366.488 327.952 366.637 331.631C366.787 335.311 366.04 339.144 363.818 342.109C375.455 343.242 386.733 340.411 398.084 337.646C399.382 337.421 400.618 336.929 401.71 336.201C403.502 334.81 404.028 332.333 404.04 330.075C404.04 326.041 402.893 322.109 401.728 318.24C400.342 313.6 399.314 308.824 397.923 304.213Z" fill="white"/>
<path d="M460.242 204.756C464.824 205.346 468.378 208.996 470.995 212.746C478.337 223.183 481.503 235.837 485.028 248.06C489.408 263.261 494.56 278.223 500.482 292.944C501.757 296.344 503.307 299.637 505.118 302.792C506.593 305.227 508.386 307.568 509.037 310.333C510.614 317.02 505.028 323.306 499.204 327.032C496.099 329.098 492.709 330.71 489.138 331.82C485.661 332.846 482.035 333.235 478.432 333.624L445.271 337.162C430.008 338.802 414.607 340.441 399.338 338.861C398.376 335.558 400.264 333.223 400.126 329.786C400.031 327.327 398.932 325.039 397.952 322.775C396.145 318.742 394.952 314.468 394.409 310.091C394.236 308.482 394.176 306.831 393.555 305.333C392.934 303.835 391.602 302.491 389.971 302.385C398.932 301.506 405.736 299.837 414.697 298.953C418.024 298.623 421.483 298.251 424.321 296.506C427.839 294.342 429.811 290.438 431.376 286.653C435.253 277.277 437.75 266.947 435.713 257.017C434.04 248.874 429.375 241.291 429.399 232.983C429.399 228.036 431.107 223.242 433.126 218.713C435.265 213.925 438.055 209.031 442.75 206.602C447.446 204.173 454.943 204.049 460.242 204.756Z" fill="#6C63FF"/>
<path opacity="0.08" d="M460.242 204.756C464.824 205.346 468.378 208.996 470.995 212.746C478.337 223.183 481.503 235.837 485.028 248.06C489.408 263.261 494.56 278.223 500.482 292.944C501.757 296.344 503.307 299.637 505.118 302.792C506.593 305.227 508.386 307.568 509.037 310.333C510.614 317.02 505.028 323.306 499.204 327.032C496.099 329.098 492.709 330.71 489.138 331.82C485.661 332.846 482.035 333.235 478.432 333.624L445.271 337.162C430.008 338.802 414.607 340.441 399.338 338.861C398.376 335.558 400.264 333.223 400.126 329.786C400.031 327.327 398.932 325.039 397.952 322.775C396.145 318.742 394.952 314.468 394.409 310.091C394.236 308.482 394.176 306.831 393.555 305.333C392.934 303.835 391.602 302.491 389.971 302.385C398.932 301.506 405.736 299.837 414.697 298.953C418.024 298.623 421.483 298.251 424.321 296.506C427.839 294.342 429.811 290.438 431.376 286.653C435.253 277.277 437.75 266.947 435.713 257.017C434.04 248.874 429.375 241.291 429.399 232.983C429.399 228.036 431.107 223.242 433.126 218.713C435.265 213.925 438.055 209.031 442.75 206.602C447.446 204.173 454.943 204.049 460.242 204.756Z" fill="black"/>
<path d="M252.583 197.097C254.751 192.014 256.956 186.766 257.015 181.253C257.081 175.291 254.626 169.631 252.75 163.97C250.43 157.044 248.886 149.888 248.144 142.631C247.99 141.935 248.096 141.209 248.443 140.585C248.939 139.895 249.894 139.753 250.737 139.57C254.871 138.639 257.995 135.343 260.576 132.023C264.579 126.896 267.96 121.323 270.648 115.418C272.625 111.073 275.301 105.772 280.128 105.73C278.185 114.74 275.776 123.645 272.912 132.412C277.96 131.138 282.757 129.287 287.805 128.013C288.793 127.705 289.828 127.57 290.863 127.612C293.886 127.925 295.738 131.964 293.982 134.411C296.449 137.265 300.553 138.031 303.779 139.989C307.005 141.947 309.323 146.794 306.455 149.252C305.894 149.73 305.183 150.066 304.777 150.679C303.391 152.79 306.784 155.214 306.503 157.714C306.276 159.76 303.618 160.715 301.605 160.173C299.591 159.63 298.02 158.144 296.228 157.054C294.436 155.963 292.094 155.285 290.356 156.417C289.89 161.965 289.388 167.62 286.957 172.673C286.066 174.519 284.925 176.247 284.209 178.163C283.523 180.253 283.098 182.417 282.942 184.608L280.774 204.178C270.427 206.225 261.149 203.164 252.583 197.097Z" fill="#EFB7B9"/>
<path d="M250.056 214.639L248.15 201.908C247.968 200.872 247.866 199.823 247.846 198.771C247.846 195.823 249.16 193.01 250.432 190.328C260.976 195.186 272.375 196.914 284.006 196.92C285.541 196.92 287.291 196.778 288.247 195.593C290.225 197.84 290.284 201.454 289.442 204.308C288.6 207.162 286.981 209.733 285.905 212.516C285.362 213.925 284.92 215.464 283.88 216.549C282.267 218.265 279.651 218.56 277.273 218.548C274.772 218.533 272.277 218.298 269.818 217.847C263.45 216.679 256.424 213.513 250.056 214.639Z" fill="white"/>
<path d="M289.382 214.12C281.198 213.2 273.067 211.903 264.991 210.228C261.03 209.409 257.033 208.495 252.995 208.654C250.366 208.76 247.541 209.279 245.229 207.993C247.481 215.559 247.618 223.531 244.924 230.954C243.329 235.377 240.898 239.498 239.727 244.051C237.29 253.573 240.635 263.957 237.588 273.309C237.266 274.531 236.633 275.652 235.748 276.564C234.816 277.407 233.544 277.843 232.684 278.757C231.417 280.102 231.34 282.124 231.334 283.958L231.28 300.203C231.244 310.545 231.381 321.513 236.913 330.275C243.222 340.299 256.502 345.494 268.061 342.446C271.135 341.67 274.014 340.279 276.52 338.359C280.535 335.211 283.092 330.658 285.595 326.224C288.582 320.917 291.569 315.493 292.53 309.519C293.211 305.292 292.829 300.975 292.339 296.724C289.639 273.138 283.779 249.752 285.039 226.078C285.228 221.75 286.742 217.58 289.382 214.12Z" fill="#6C63FF"/>
<path d="M323.589 312.002C319.437 312.238 315.256 312.474 311.122 312.002C308.135 311.648 305.219 310.923 302.256 310.428C294.164 309.138 285.885 309.591 277.987 311.757C270.09 313.923 262.76 317.75 256.502 322.975C254.208 324.909 251.89 327.875 253.157 330.582C254.519 333.495 258.683 333.412 261.891 332.87C258.428 334.502 255.369 336.863 252.93 339.786C252.034 340.865 251.185 342.145 251.359 343.542C251.723 346.461 255.737 346.992 258.707 346.738C257.739 347.764 258.39 349.58 259.621 350.276C260.851 350.972 262.38 350.83 263.772 350.577C266.85 350.021 269.823 349.005 272.59 347.564C272.028 349.008 273.002 350.701 274.382 351.42C275.762 352.14 277.441 352.086 278.988 351.839C286.288 350.659 292.381 345.647 299.502 343.678C310.889 340.535 322.801 345.547 334.635 345.901C338.339 346.013 342.138 345.642 345.513 344.132C349.653 342.275 352.993 338.79 357.366 337.552C362.223 336.184 367.796 337.758 372.241 335.393C375.473 333.678 372.557 320.452 371.733 317.904C370.222 313.246 368.704 310.156 363.668 309.685C350.926 308.452 336.427 311.271 323.589 312.002Z" fill="#EFB7B9"/>
<path d="M355.376 308.393C355.376 308.393 374.666 324.508 363.536 342.092L385.042 334.762V319.378C385.042 318.647 376.876 307.662 376.876 307.662L367.228 306.194L355.376 308.393Z" fill="white"/>
<path d="M153.405 307.397H160.639C164.6 307.397 168.399 308.95 171.199 311.714C174 314.479 175.574 318.228 175.574 322.138V344.02H138.47V322.138C138.47 320.202 138.856 318.285 139.607 316.497C140.357 314.708 141.457 313.083 142.844 311.714C144.231 310.345 145.877 309.26 147.689 308.519C149.501 307.778 151.443 307.397 153.405 307.397Z" fill="#3F3D56"/>
<path opacity="0.1" d="M153.405 307.397H160.639C164.6 307.397 168.399 308.95 171.199 311.714C174 314.479 175.574 318.228 175.574 322.138V344.02H138.47V322.138C138.47 320.202 138.856 318.285 139.607 316.497C140.357 314.708 141.457 313.083 142.844 311.714C144.231 310.345 145.877 309.26 147.689 308.519C149.501 307.778 151.443 307.397 153.405 307.397Z" fill="black"/>
<path d="M155.536 315.451C157.176 315.451 158.505 314.139 158.505 312.521C158.505 310.902 157.176 309.59 155.536 309.59C153.897 309.59 152.567 310.902 152.567 312.521C152.567 314.139 153.897 315.451 155.536 315.451Z" fill="#3F3D56"/>
<path d="M155.536 311.79C157.176 311.79 158.505 310.478 158.505 308.859C158.505 307.241 157.176 305.929 155.536 305.929C153.897 305.929 152.567 307.241 152.567 308.859C152.567 310.478 153.897 311.79 155.536 311.79Z" fill="#3F3D56"/>
<path d="M155.536 308.128C157.176 308.128 158.505 306.816 158.505 305.197C158.505 303.579 157.176 302.267 155.536 302.267C153.897 302.267 152.567 303.579 152.567 305.197C152.567 306.816 153.897 308.128 155.536 308.128Z" fill="#3F3D56"/>
<path d="M155.536 304.466C157.176 304.466 158.505 303.154 158.505 301.536C158.505 299.917 157.176 298.605 155.536 298.605C153.897 298.605 152.567 299.917 152.567 301.536C152.567 303.154 153.897 304.466 155.536 304.466Z" fill="#3F3D56"/>
<path d="M155.536 300.805C157.176 300.805 158.505 299.492 158.505 297.874C158.505 296.255 157.176 294.943 155.536 294.943C153.897 294.943 152.567 296.255 152.567 297.874C152.567 299.492 153.897 300.805 155.536 300.805Z" fill="#3F3D56"/>
<path d="M155.536 297.143C157.176 297.143 158.505 295.831 158.505 294.212C158.505 292.594 157.176 291.282 155.536 291.282C153.897 291.282 152.567 292.594 152.567 294.212C152.567 295.831 153.897 297.143 155.536 297.143Z" fill="#3F3D56"/>
<path d="M155.536 293.475C157.176 293.475 158.505 292.163 158.505 290.545C158.505 288.926 157.176 287.614 155.536 287.614C153.897 287.614 152.567 288.926 152.567 290.545C152.567 292.163 153.897 293.475 155.536 293.475Z" fill="#3F3D56"/>
<path d="M159.993 294.943C161.633 294.943 162.962 293.631 162.962 292.013C162.962 290.394 161.633 289.082 159.993 289.082C158.354 289.082 157.024 290.394 157.024 292.013C157.024 293.631 158.354 294.943 159.993 294.943Z" fill="#3F3D56"/>
<path d="M162.962 293.475C164.602 293.475 165.931 292.163 165.931 290.545C165.931 288.926 164.602 287.614 162.962 287.614C161.322 287.614 159.993 288.926 159.993 290.545C159.993 292.163 161.322 293.475 162.962 293.475Z" fill="#3F3D56"/>
<path d="M165.932 292.013C167.572 292.013 168.901 290.701 168.901 289.082C168.901 287.464 167.572 286.152 165.932 286.152C164.292 286.152 162.963 287.464 162.963 289.082C162.963 290.701 164.292 292.013 165.932 292.013Z" fill="#3F3D56"/>
<path d="M155.536 289.813C157.176 289.813 158.505 288.501 158.505 286.883C158.505 285.264 157.176 283.952 155.536 283.952C153.897 283.952 152.567 285.264 152.567 286.883C152.567 288.501 153.897 289.813 155.536 289.813Z" fill="#3F3D56"/>
<path d="M155.536 286.152C157.176 286.152 158.505 284.84 158.505 283.221C158.505 281.603 157.176 280.291 155.536 280.291C153.897 280.291 152.567 281.603 152.567 283.221C152.567 284.84 153.897 286.152 155.536 286.152Z" fill="#3F3D56"/>
<path d="M155.536 282.49C157.176 282.49 158.505 281.178 158.505 279.559C158.505 277.941 157.176 276.629 155.536 276.629C153.897 276.629 152.567 277.941 152.567 279.559C152.567 281.178 153.897 282.49 155.536 282.49Z" fill="#3F3D56"/>
<path d="M155.536 278.828C157.176 278.828 158.505 277.516 158.505 275.898C158.505 274.279 157.176 272.967 155.536 272.967C153.897 272.967 152.567 274.279 152.567 275.898C152.567 277.516 153.897 278.828 155.536 278.828Z" fill="#3F3D56"/>
<path d="M167.867 266.446C167.126 266.552 166.385 266.628 165.645 266.676C166.333 266.082 166.972 265.436 167.556 264.741C167.145 263.51 166.54 262.35 165.764 261.304C165.028 261.712 164.214 261.965 163.374 262.047C162.64 262.153 161.899 262.23 161.158 262.283C162.132 261.498 163.04 260.319 163.996 259.334C161.854 257.419 159.111 256.287 156.225 256.13C153.339 255.973 150.486 256.8 148.144 258.472C145.802 260.143 144.113 262.559 143.361 265.313C142.608 268.068 142.837 270.994 144.01 273.601C145.183 276.209 147.228 278.339 149.802 279.636C152.377 280.932 155.325 281.316 158.152 280.723C160.979 280.129 163.514 278.595 165.331 276.377C167.149 274.159 168.139 271.392 168.136 268.539C168.136 267.821 168.072 267.105 167.945 266.398L167.867 266.446Z" fill="#6C63FF"/>
<path d="M177.766 281.004C177.009 281.464 176.154 281.744 175.269 281.824C174.534 281.93 173.793 282.012 173.052 282.059C173.84 281.362 174.574 280.61 175.251 279.807C173.461 279.346 171.561 279.561 169.923 280.41C168.285 281.258 167.026 282.679 166.393 284.395C165.76 286.11 165.798 287.998 166.5 289.687C167.201 291.377 168.516 292.747 170.187 293.531C171.858 294.314 173.765 294.454 175.535 293.924C177.305 293.393 178.811 292.23 179.759 290.662C180.706 289.094 181.027 287.233 180.658 285.444C180.29 283.654 179.259 282.065 177.766 280.986V281.004Z" fill="#6C63FF"/>
<path d="M151.086 294.943C152.726 294.943 154.055 293.631 154.055 292.013C154.055 290.394 152.726 289.082 151.086 289.082C149.446 289.082 148.117 290.394 148.117 292.013C148.117 293.631 149.446 294.943 151.086 294.943Z" fill="#3F3D56"/>
<path d="M148.117 293.475C149.757 293.475 151.087 292.163 151.087 290.545C151.087 288.926 149.757 287.614 148.117 287.614C146.478 287.614 145.148 288.926 145.148 290.545C145.148 292.163 146.478 293.475 148.117 293.475Z" fill="#3F3D56"/>
<path d="M145.148 292.013C146.787 292.013 148.117 290.701 148.117 289.082C148.117 287.464 146.787 286.152 145.148 286.152C143.508 286.152 142.179 287.464 142.179 289.082C142.179 290.701 143.508 292.013 145.148 292.013Z" fill="#3F3D56"/>
<path d="M133.314 281.004C134.071 281.464 134.926 281.744 135.811 281.824C136.546 281.93 137.287 282.012 138.028 282.059C137.239 281.364 136.504 280.611 135.829 279.807C137.619 279.346 139.519 279.561 141.157 280.41C142.795 281.258 144.054 282.679 144.687 284.395C145.32 286.11 145.282 287.998 144.58 289.687C143.879 291.377 142.564 292.747 140.893 293.531C139.222 294.314 137.315 294.454 135.545 293.924C133.775 293.393 132.269 292.23 131.321 290.662C130.374 289.094 130.053 287.233 130.421 285.444C130.79 283.654 131.821 282.065 133.314 280.986V281.004Z" fill="#6C63FF"/>
<path d="M153.404 309.567H160.638C164.599 309.567 168.398 311.12 171.199 313.884C174 316.649 175.573 320.398 175.573 324.308V343.69C175.573 344.353 175.306 344.989 174.831 345.458C174.356 345.926 173.712 346.19 173.04 346.19H140.984C140.312 346.19 139.668 345.926 139.193 345.458C138.718 344.989 138.451 344.353 138.451 343.69V324.308C138.451 322.371 138.838 320.452 139.59 318.663C140.341 316.873 141.443 315.247 142.832 313.878C144.221 312.509 145.869 311.423 147.683 310.684C149.497 309.944 151.441 309.564 153.404 309.567Z" fill="#3F3D56"/>
<g opacity="0.1">
<path opacity="0.1" d="M168.07 267.247C167.769 267.564 167.45 267.864 167.114 268.144C167.455 268.144 167.789 268.091 168.13 268.055C168.118 267.784 168.1 267.513 168.07 267.247Z" fill="black"/>
<path opacity="0.1" d="M162.658 263.745C163.405 263.698 164.14 263.621 164.88 263.515C165.545 263.432 166.195 263.257 166.81 262.996C166.508 262.407 166.16 261.841 165.771 261.304C165.399 261.527 164.997 261.696 164.576 261.805C163.99 262.501 163.349 263.15 162.658 263.745Z" fill="black"/>
<path opacity="0.1" d="M144.408 270.036C144.403 267.801 145.01 265.606 146.163 263.682C147.317 261.758 148.974 260.177 150.962 259.105C152.949 258.033 155.193 257.509 157.456 257.59C159.72 257.671 161.919 258.353 163.823 259.564L164.014 259.364C162.772 258.273 161.323 257.435 159.751 256.899C158.179 256.363 156.515 256.139 154.855 256.241C153.195 256.343 151.572 256.767 150.08 257.491C148.587 258.214 147.254 259.222 146.157 260.457C145.061 261.691 144.223 263.127 143.691 264.682C143.16 266.238 142.945 267.882 143.06 269.519C143.175 271.157 143.618 272.756 144.362 274.224C145.105 275.692 146.136 277 147.395 278.073C145.463 275.83 144.404 272.981 144.408 270.036Z" fill="black"/>
</g>
<g opacity="0.1">
<path opacity="0.1" d="M173.053 283.522C173.793 283.475 174.534 283.398 175.269 283.292C176.155 283.211 177.009 282.928 177.766 282.466C178.605 283.076 179.304 283.853 179.819 284.747C180.334 285.641 180.652 286.632 180.753 287.655C180.782 287.399 180.796 287.141 180.795 286.883C180.801 285.738 180.533 284.607 180.014 283.583C179.495 282.558 178.74 281.669 177.808 280.986C177.051 281.446 176.196 281.727 175.311 281.806L174.713 281.883C174.204 282.471 173.648 283.019 173.053 283.522Z" fill="black"/>
<path opacity="0.1" d="M173.351 281.022C173.599 281.024 173.846 281.042 174.092 281.075C174.48 280.668 174.863 280.232 175.251 279.807C174.153 279.517 173.002 279.481 171.887 279.701C170.772 279.921 169.724 280.391 168.823 281.076C167.922 281.76 167.192 282.639 166.691 283.646C166.19 284.653 165.93 285.761 165.932 286.883C165.932 287.13 165.932 287.372 165.967 287.614C166.151 285.807 167.008 284.132 168.373 282.914C169.737 281.696 171.511 281.021 173.351 281.022Z" fill="black"/>
</g>
<g opacity="0.1">
<path opacity="0.1" d="M138.027 283.522C137.287 283.475 136.546 283.398 135.811 283.292C134.925 283.211 134.071 282.928 133.314 282.466C132.475 283.076 131.776 283.853 131.261 284.747C130.747 285.641 130.428 286.632 130.327 287.655C130.298 287.399 130.284 287.141 130.285 286.883C130.28 285.738 130.547 284.607 131.066 283.583C131.585 282.558 132.341 281.669 133.272 280.986C134.029 281.446 134.884 281.727 135.769 281.806L136.367 281.883C136.873 282.474 137.429 283.022 138.027 283.522Z" fill="black"/>
<path opacity="0.1" d="M137.729 281.022C137.479 281.025 137.23 281.042 136.982 281.075C136.6 280.668 136.217 280.232 135.829 279.807C136.927 279.517 138.078 279.481 139.193 279.701C140.308 279.921 141.356 280.391 142.257 281.076C143.158 281.76 143.888 282.639 144.389 283.646C144.89 284.653 145.15 285.761 145.148 286.883C145.148 287.13 145.148 287.372 145.113 287.614C144.929 285.807 144.072 284.132 142.707 282.914C141.343 281.696 139.569 281.021 137.729 281.022Z" fill="black"/>
</g>
<path d="M117.596 353.278H59.2311C58.5736 353.278 57.943 353.02 57.4781 352.561C57.0132 352.102 56.752 351.479 56.752 350.83V323.565C56.7518 323.152 56.8576 322.746 57.0594 322.384C57.2612 322.022 57.5525 321.717 57.9061 321.496C58.2597 321.275 58.6641 321.147 59.0817 321.122C59.4993 321.097 59.9165 321.177 60.2945 321.354C77.0633 329.208 95.1284 331.903 116.449 321.478C116.827 321.294 117.246 321.208 117.667 321.227C118.088 321.247 118.497 321.373 118.855 321.591C119.214 321.81 119.51 322.115 119.716 322.478C119.922 322.841 120.031 323.249 120.034 323.665V350.789C120.039 351.111 119.981 351.43 119.861 351.729C119.742 352.028 119.563 352.301 119.337 352.532C119.111 352.763 118.841 352.948 118.542 353.076C118.243 353.204 117.922 353.272 117.596 353.278Z" fill="#6C63FF"/>
<path opacity="0.1" d="M117.596 353.278H59.2311C58.5736 353.278 57.943 353.02 57.4781 352.561C57.0132 352.102 56.752 351.479 56.752 350.83V323.565C56.7518 323.152 56.8576 322.746 57.0594 322.384C57.2612 322.022 57.5525 321.717 57.9061 321.496C58.2597 321.275 58.6641 321.147 59.0817 321.122C59.4993 321.097 59.9165 321.177 60.2945 321.354C77.0633 329.208 95.1284 331.903 116.449 321.478C116.827 321.294 117.246 321.208 117.667 321.227C118.088 321.247 118.497 321.373 118.855 321.591C119.214 321.81 119.51 322.115 119.716 322.478C119.922 322.841 120.031 323.249 120.034 323.665V350.789C120.039 351.111 119.981 351.43 119.861 351.729C119.742 352.028 119.563 352.301 119.337 352.532C119.111 352.763 118.841 352.948 118.542 353.076C118.243 353.204 117.922 353.272 117.596 353.278Z" fill="black"/>
<path d="M88.0076 332.551C89.9146 332.551 91.4605 330.553 91.4605 328.088C91.4605 325.622 89.9146 323.624 88.0076 323.624C86.1006 323.624 84.5547 325.622 84.5547 328.088C84.5547 330.553 86.1006 332.551 88.0076 332.551Z" fill="#3F3D56"/>
<path d="M88.0076 327.097C89.9146 327.097 91.4605 325.099 91.4605 322.633C91.4605 320.168 89.9146 318.17 88.0076 318.17C86.1006 318.17 84.5547 320.168 84.5547 322.633C84.5547 325.099 86.1006 327.097 88.0076 327.097Z" fill="#3F3D56"/>
<path d="M88.0076 321.637C89.9146 321.637 91.4605 319.638 91.4605 317.173C91.4605 314.708 89.9146 312.709 88.0076 312.709C86.1006 312.709 84.5547 314.708 84.5547 317.173C84.5547 319.638 86.1006 321.637 88.0076 321.637Z" fill="#3F3D56"/>
<path d="M88.0076 316.183C89.9146 316.183 91.4605 314.184 91.4605 311.719C91.4605 309.254 89.9146 307.255 88.0076 307.255C86.1006 307.255 84.5547 309.254 84.5547 311.719C84.5547 314.184 86.1006 316.183 88.0076 316.183Z" fill="#3F3D56"/>
<path d="M88.0076 310.722C89.9146 310.722 91.4605 308.724 91.4605 306.259C91.4605 303.794 89.9146 301.795 88.0076 301.795C86.1006 301.795 84.5547 303.794 84.5547 306.259C84.5547 308.724 86.1006 310.722 88.0076 310.722Z" fill="#3F3D56"/>
<path d="M88.0076 305.262C89.9146 305.262 91.4605 303.264 91.4605 300.799C91.4605 298.333 89.9146 296.335 88.0076 296.335C86.1006 296.335 84.5547 298.333 84.5547 300.799C84.5547 303.264 86.1006 305.262 88.0076 305.262Z" fill="#3F3D56"/>
<path d="M88.0076 299.808C89.9146 299.808 91.4605 297.809 91.4605 295.344C91.4605 292.879 89.9146 290.881 88.0076 290.881C86.1006 290.881 84.5547 292.879 84.5547 295.344C84.5547 297.809 86.1006 299.808 88.0076 299.808Z" fill="#3F3D56"/>
<path d="M100.959 257.996C101.428 257.401 101.857 256.777 102.244 256.127L93.1634 254.652L102.985 254.723C103.932 252.697 104.449 250.5 104.503 248.269C104.558 246.038 104.149 243.82 103.301 241.751L90.1287 248.496L102.28 239.652C101.142 237.71 99.6111 236.02 97.7827 234.687C95.9543 233.354 93.8674 232.407 91.6522 231.906C89.4369 231.404 87.1406 231.358 84.9064 231.77C82.6723 232.182 80.5481 233.044 78.6662 234.302C76.7844 235.561 75.1851 237.188 73.9682 239.082C72.7512 240.977 71.9426 243.099 71.5928 245.316C71.2429 247.532 71.3593 249.797 71.9347 251.967C72.51 254.137 73.532 256.167 74.937 257.931C74.1988 258.852 73.5658 259.851 73.0493 260.909L84.8298 267.017L72.2846 262.831C71.4053 265.404 71.189 268.153 71.6552 270.83C72.1214 273.506 73.2554 276.026 74.955 278.162C73.0344 280.572 71.8397 283.467 71.5074 286.516C71.1751 289.564 71.7187 292.644 73.0759 295.402C74.4332 298.16 76.5494 300.486 79.1826 302.113C81.8157 303.74 84.8596 304.602 87.9661 304.602C91.0727 304.602 94.1166 303.74 96.7497 302.113C99.3829 300.486 101.499 298.16 102.856 295.402C104.214 292.644 104.757 289.564 104.425 286.516C104.093 283.467 102.898 280.572 100.977 278.162C103.272 275.282 104.519 271.725 104.519 268.061C104.519 264.397 103.272 260.84 100.977 257.96L100.959 257.996Z" fill="#6C63FF"/>
<path opacity="0.1" d="M71.3819 268.097C71.3764 271.761 72.6247 275.32 74.9244 278.197C73.0038 280.607 71.8091 283.502 71.4768 286.551C71.1445 289.6 71.6881 292.679 73.0454 295.437C74.4026 298.195 76.5188 300.521 79.152 302.148C81.7851 303.775 84.829 304.638 87.9356 304.638C91.0421 304.638 94.086 303.775 96.7191 302.148C99.3523 300.521 101.468 298.195 102.826 295.437C104.183 292.679 104.727 289.6 104.394 286.551C104.062 283.502 102.867 280.607 100.947 278.197C103.163 275.42 71.3819 266.263 71.3819 268.097Z" fill="black"/>
<path d="M117.596 354.722H59.2311C58.5736 354.722 57.943 354.464 57.4781 354.005C57.0132 353.547 56.752 352.924 56.752 352.275V323.565C56.7518 323.152 56.8576 322.746 57.0594 322.384C57.2612 322.022 57.5525 321.717 57.9061 321.496C58.2597 321.275 58.6641 321.147 59.0817 321.122C59.4993 321.097 59.9165 321.177 60.2945 321.354C77.0633 329.208 90.3612 338.365 116.449 321.478C117.996 320.475 120.034 321.843 120.034 323.665V352.263C120.037 352.907 119.783 353.527 119.327 353.987C118.87 354.447 118.249 354.711 117.596 354.722Z" fill="#6C63FF"/>
<path d="M550.693 346.603L464.585 357.847L460.278 358.407L418.18 336.213V331.018L549.737 316.855L550.693 346.603Z" fill="#9C9CA1"/>
<path d="M442.577 338.572L535.86 327.716L534.904 344.716L462.243 349.975L442.577 338.572Z" fill="#939498"/>
<path opacity="0.4" d="M464.585 352.263V357.841L460.278 358.431L418.174 336.213V331.018L458.36 352.246C458.36 352.246 463.629 352.735 464.585 352.263Z" fill="black"/>
<path d="M481.115 263.727L461.784 352.204C461.589 353.09 461.613 354.009 461.853 354.884C462.094 355.759 462.545 356.563 463.167 357.23C463.789 357.897 464.565 358.406 465.428 358.715C466.292 359.023 467.218 359.122 468.128 359.003L590.432 343.023C591.497 342.885 592.502 342.453 593.33 341.777C594.158 341.101 594.777 340.209 595.115 339.203L621.502 260.661C621.794 259.79 621.866 258.861 621.714 257.956C621.561 257.051 621.187 256.196 620.625 255.464C620.063 254.733 619.33 254.148 618.487 253.759C617.645 253.37 616.72 253.189 615.791 253.231L486.444 259.293C485.186 259.352 483.982 259.818 483.019 260.619C482.056 261.421 481.387 262.513 481.115 263.727Z" fill="#3F3D56"/>
<path d="M548.318 296.368C548.618 293.55 547.375 291.112 545.541 290.922C543.706 290.731 541.976 292.861 541.676 295.679C541.376 298.497 542.62 300.935 544.454 301.125C546.288 301.316 548.018 299.186 548.318 296.368Z" fill="white"/>
</g>
<defs>
<clipPath id="clip0">
<rect width="687" height="370" fill="white"/>
</clipPath>
</defs>
</svg>
