<svg width="738" height="370" viewBox="0 0 738 370" fill="none" xmlns="http://www.w3.org/2000/svg">
<g clip-path="url(#clip0)">
<path opacity="0.1" d="M725.904 164.759C725.771 165.284 725.639 165.809 725.493 166.334C720.768 184.21 713.055 201.444 701.586 217.268C701.209 217.793 700.826 218.318 700.436 218.843C693.075 228.82 684.037 238.196 673.498 246.787C667.784 251.422 661.554 255.824 654.147 259.001C643.765 263.454 631.627 265.263 619.698 266.744C607.302 268.286 594.745 269.557 582.217 270.963C577.776 271.45 573.363 271.961 568.978 272.495C556.874 273.967 544.862 275.669 533.134 277.923C518.634 280.735 504.566 284.358 491.327 289.491C490.267 289.897 489.22 290.314 488.184 290.742C487.146 291.164 486.094 291.595 485.083 292.036C484.073 292.476 483.056 292.912 482.052 293.357L480.505 294.06C479.997 294.285 479.495 294.529 478.993 294.754C477.502 295.438 476.032 296.16 474.562 296.854L474.506 296.882C473.537 297.351 472.576 297.819 471.614 298.288C466.186 300.993 460.877 303.824 455.588 306.664L452.25 308.459C450.527 309.378 448.803 310.295 447.08 311.21C446.07 311.749 445.045 312.284 444.028 312.818C443.289 313.207 442.558 313.596 441.805 313.98C438.035 315.935 434.217 317.847 430.322 319.675C429.395 320.111 428.454 320.547 427.535 320.973C419.738 324.561 411.445 327.634 402.77 330.151L402.659 330.184C398.387 331.409 393.99 332.428 389.503 333.235C386.932 333.704 384.361 334.074 381.755 334.364C374.813 335.172 367.726 335.254 360.747 334.608C347.027 333.3 334.171 328.984 320.486 327.54C292.251 324.592 264.832 334.102 238.263 341.568C231.76 343.399 225.184 345.118 218.537 346.724C214.133 347.793 209.709 348.81 205.263 349.775C178.179 355.668 150.272 359.684 121.975 361.76C110.422 362.609 98.3742 363.012 86.6122 362.402C82.1705 362.183 77.7505 361.796 73.373 361.245C58.4824 359.37 44.5813 355.39 33.3838 348.121C24.0815 342.173 17.5177 334.397 12.5147 326.284C10.5032 323.025 8.73104 319.691 7.19808 316.282C4.78856 310.939 2.97877 305.482 1.78396 299.957C1.51221 298.71 1.26833 297.459 1.08716 296.207C0.724827 294.06 0.455396 291.904 0.278874 289.739C-0.696728 278.23 0.974358 266.689 5.23311 255.524C9.97831 243.154 17.8939 231.31 21.3779 218.824C21.5243 218.299 21.6566 217.774 21.789 217.249C22.2536 215.374 22.6066 213.465 22.8482 211.522C24.6041 196.251 17.8103 181.304 12.445 166.334C12.2568 165.809 12.0687 165.284 11.8875 164.759C11.3069 163.1 10.7564 161.439 10.2361 159.777C5.26795 143.944 3.90919 127 8.31993 111.2C8.45929 110.675 8.61955 110.146 8.77982 109.625C11.7551 99.8387 17.009 90.5302 25.057 82.2389C33.3141 73.7272 44.1563 66.6451 55.7161 60.4207C61.3602 57.3897 67.1971 54.5541 73.2267 51.9137C77.5608 50.0201 81.9738 48.2281 86.4659 46.5376C122.762 32.9452 164.173 26.3037 205.117 27.7895C207.286 27.8645 209.451 27.9644 211.611 28.0894C213.878 28.2207 216.138 28.3769 218.391 28.5581C244.751 30.6064 270.4 35.6824 295.896 41.2366C304.438 43.1114 312.96 44.9862 321.482 46.8611C325.273 47.6922 329.061 48.5125 332.847 49.3218C351.416 53.2636 370.293 56.821 389.343 59.502C393.761 60.127 398.174 60.6972 402.582 61.2128C417.909 63.0596 433.418 64.1343 448.982 64.4281C455.021 64.5281 461.06 64.4859 467.099 64.3015C470.151 64.2078 473.205 64.0703 476.262 63.8891C507.834 62.0705 538.277 55.9727 568.845 50.2451C573.263 49.4155 577.688 48.5906 582.085 47.7938C587.896 46.7439 593.714 45.7268 599.553 44.7894C635.912 38.9165 668.313 42.2912 702.115 54.4025C709.78 57.1538 717.445 60.4722 722.183 65.6092C726.921 70.7462 728.071 77.1066 728.949 83.2278C730.189 91.9364 731.039 100.767 731.311 109.635C731.311 110.16 731.311 110.685 731.36 111.209C731.973 129.166 730.349 147.258 725.904 164.759Z" fill="#6C63FF"/>
<path opacity="0.1" d="M484.749 217.268H482.373V217.966V218.843H485.062L484.749 217.268ZM457.818 217.268C457.814 217.28 457.814 217.293 457.818 217.305L457.608 218.608V218.726V218.843H478.234V218.749L479.704 217.268H457.818ZM402.666 217.268V166.334H426.357C426.106 166.193 425.848 166.053 425.584 165.921L425.235 165.743C425.089 165.664 424.943 165.589 424.789 165.518C424.636 165.448 424.274 165.27 424.002 165.148C423.73 165.026 423.563 164.946 423.305 164.848L423.145 164.778H423.11H402.666V161.989L402.116 162.167L401.53 162.387H401.488L401.363 162.439L401.001 162.598C400.875 162.65 400.75 162.701 400.631 162.758C400.269 162.922 399.935 163.1 399.551 163.283L399.203 163.47C398.966 163.592 398.743 163.718 398.506 163.845C397.579 164.356 396.667 164.89 395.719 165.382C395.482 165.509 395.245 165.631 395.022 165.748C394.516 165.998 393.99 166.229 393.447 166.442C393.222 166.536 392.989 166.622 392.75 166.699L392.36 166.821L392.005 166.924C391.168 167.162 390.3 167.347 389.413 167.477V217.268H353.876C353.876 217.324 353.925 217.376 353.946 217.432C354.141 217.901 354.336 218.369 354.524 218.838H389.42V273.438H389.963L390.583 273.466L391.712 273.522L393.538 273.644L394.36 273.709L395.266 273.784H395.398C395.921 273.831 396.45 273.887 396.987 273.944L397.328 273.981L398.095 274.066L399.196 274.197L401.837 274.103L402.199 274.155C402.345 274.155 402.492 274.192 402.645 274.216V218.843H457.56V218.726V218.608L457.769 217.305C457.765 217.293 457.765 217.28 457.769 217.268H402.666ZM484.749 217.268H482.373V217.966V218.843H485.062L484.749 217.268ZM456.333 217.268L456.096 218.843H479.042L480.603 217.268H456.333ZM402.68 217.268V166.334H426.371C426.12 166.193 425.862 166.053 425.598 165.921L425.249 165.743C425.103 165.664 424.957 165.589 424.803 165.518C424.65 165.448 424.288 165.27 424.016 165.148C423.744 165.026 423.577 164.946 423.319 164.848L423.159 164.778H423.11H402.666V161.989L402.116 162.167L401.53 162.387H401.488L401.363 162.439L401.001 162.598C400.875 162.65 400.75 162.701 400.631 162.758C400.269 162.922 399.935 163.1 399.551 163.283L399.203 163.47C398.966 163.592 398.743 163.718 398.506 163.845C397.579 164.356 396.667 164.89 395.719 165.382C395.482 165.509 395.245 165.631 395.022 165.748C394.516 165.998 393.99 166.229 393.447 166.442C393.222 166.536 392.989 166.622 392.75 166.699L392.36 166.821L392.005 166.924C391.168 167.162 390.3 167.347 389.413 167.477V217.268H353.876C353.876 217.324 353.925 217.376 353.946 217.432C354.141 217.901 354.343 218.369 354.531 218.838H389.42V273.433L389.963 273.456L390.583 273.484L391.712 273.541L393.538 273.662L394.36 273.728L395.266 273.803H395.398C395.921 273.85 396.45 273.906 396.987 273.962L397.328 274L398.095 274.084L399.196 274.216L401.837 274.122L402.199 274.173C402.345 274.173 402.492 274.211 402.645 274.234V218.843H456.096L456.347 217.268H402.68ZM582.217 111.2H731.492C731.492 110.675 731.492 110.15 731.443 109.625H582.217V47.7844C577.785 48.5812 573.361 49.4062 568.978 50.2358V109.625H406.624L406.213 109.325L406.833 108.857L467.217 64.2781C461.178 64.4656 455.139 64.5078 449.101 64.4047L402.666 98.667V61.2034C398.234 60.6879 393.821 60.1176 389.427 59.4927V96.9422L321.538 46.8517C313.016 44.9769 304.494 43.0693 295.951 41.2273L388.228 109.325L387.817 109.625H218.446V28.5394C216.189 28.3676 213.929 28.2113 211.667 28.0707C209.506 27.9426 207.342 27.8426 205.172 27.7708V109.625H86.5216V46.5377C82.0202 48.225 77.6072 50.017 73.2824 51.9137V109.625H8.75188C8.59162 110.146 8.43135 110.675 8.29199 111.2H73.2266V164.759H11.8875C12.0686 165.284 12.2568 165.809 12.4449 166.334H73.2545V217.268H21.7681C21.6357 217.793 21.5033 218.318 21.357 218.843H73.2545V361.259C77.632 361.81 82.052 362.197 86.4937 362.416V218.843H205.172V349.789C209.623 348.818 214.047 347.801 218.446 346.738V218.843H389.399V333.254C393.886 332.447 398.282 331.427 402.554 330.202L402.666 330.169V218.843H568.936V272.495C573.344 271.961 577.757 271.45 582.175 270.963V218.843H700.401C700.791 218.318 701.174 217.793 701.551 217.268H582.217V166.334H725.5C725.646 165.809 725.778 165.284 725.911 164.759H582.217V111.2ZM86.5285 111.2H205.172V164.759H86.5216L86.5285 111.2ZM86.5285 217.268V166.334H205.172V217.268H86.5285ZM218.453 111.2H389.399V164.759H218.446L218.453 111.2ZM218.453 217.268V166.334H389.399V217.268H218.453ZM568.943 217.268H402.666V166.334H568.936L568.943 217.268ZM568.943 164.773H402.666V112.634L405 111.2H568.936L568.943 164.773ZM457.825 217.268C457.821 217.28 457.821 217.293 457.825 217.305L457.615 218.608V218.726V218.843H478.241V218.749L479.711 217.268H457.825ZM484.756 217.268H482.38V217.966V218.843H485.069L484.756 217.268ZM402.673 217.268V166.334H426.364C426.113 166.193 425.855 166.053 425.591 165.921L425.242 165.743C425.096 165.664 424.95 165.589 424.796 165.518C424.643 165.448 424.281 165.27 424.009 165.148C423.737 165.026 423.57 164.946 423.312 164.848L423.152 164.778H423.117H402.666V161.989L402.116 162.167L401.53 162.387H401.488L401.363 162.439L401.001 162.598C400.875 162.65 400.75 162.701 400.631 162.758C400.269 162.922 399.935 163.1 399.551 163.283L399.203 163.47C398.966 163.592 398.743 163.718 398.506 163.845C397.579 164.356 396.667 164.89 395.719 165.382C395.482 165.509 395.245 165.631 395.022 165.748C394.516 165.998 393.99 166.229 393.447 166.442C393.222 166.536 392.989 166.622 392.75 166.699L392.36 166.821L392.005 166.924C391.168 167.162 390.3 167.347 389.413 167.477V217.268H353.876C353.876 217.324 353.925 217.376 353.946 217.432C354.141 217.901 354.336 218.369 354.524 218.838H389.42V273.438H389.963L390.583 273.466L391.712 273.522L393.538 273.644L394.36 273.709L395.266 273.784H395.398C395.921 273.831 396.45 273.887 396.987 273.944L397.328 273.981L398.095 274.066L399.196 274.197L401.837 274.103L402.199 274.155C402.345 274.155 402.492 274.192 402.645 274.216V218.843H457.56V218.726V218.608L457.769 217.305C457.765 217.293 457.765 217.28 457.769 217.268H402.673Z" fill="#6C63FF"/>
<path opacity="0.1" d="M143.569 74.3225H144.628C144.265 74.1814 143.96 73.9822 143.74 73.7425C143.52 73.5029 143.392 73.2303 143.366 72.9492C143.366 71.8618 145.345 70.976 147.763 70.976H178.527C180.945 70.976 182.924 71.8618 182.924 72.9492C182.924 74.0319 180.945 74.9224 178.527 74.9224H177.503C177.863 75.0644 178.166 75.264 178.385 75.5035C178.604 75.743 178.732 76.0151 178.757 76.2958C178.757 77.2332 177.321 78.0018 175.398 78.2127H184.255C186.666 78.2127 188.644 79.0986 188.644 80.186C188.644 81.2734 186.666 82.1546 184.255 82.1546H153.456C151.045 82.1546 149.066 81.2687 149.066 80.186C149.066 79.2486 150.502 78.4799 152.425 78.269H143.569C141.158 78.269 139.179 77.3831 139.179 76.2958C139.179 75.2084 141.144 74.3225 143.569 74.3225Z" fill="#6C63FF"/>
<path opacity="0.1" d="M477 93.1034H478.031C477.668 92.9616 477.363 92.7615 477.143 92.5211C476.923 92.2807 476.795 92.0073 476.77 91.7255C476.77 90.6428 478.749 89.7569 481.167 89.7569H511.931C514.349 89.7569 516.327 90.6428 516.327 91.7255C516.327 92.8129 514.349 93.6987 511.931 93.6987H510.906C511.268 93.8414 511.571 94.0418 511.79 94.2822C512.009 94.5225 512.136 94.7954 512.161 95.0767C512.161 96.0141 510.725 96.7781 508.802 96.989H517.658C520.069 96.989 522.048 97.8795 522.048 98.9623C522.048 100.045 520.069 100.936 517.658 100.936H486.902C484.491 100.936 482.512 100.05 482.512 98.9623C482.512 98.0248 483.947 97.2562 485.87 97.0499H477C474.589 97.0499 472.61 96.1594 472.61 95.0767C472.61 93.994 474.603 93.1034 477 93.1034Z" fill="#6C63FF"/>
<path opacity="0.1" d="M96.3742 173.472H97.4055C97.0442 173.329 96.7408 173.129 96.5221 172.889C96.3033 172.648 96.1759 172.376 96.1512 172.094C96.1512 171.012 98.1232 170.121 100.541 170.121H131.305C133.723 170.121 135.702 171.012 135.702 172.094C135.702 173.182 133.723 174.067 131.305 174.067H130.28C130.642 174.21 130.945 174.411 131.164 174.651C131.383 174.891 131.51 175.164 131.535 175.445C131.535 176.383 130.099 177.147 128.176 177.358H137.032C139.45 177.358 141.422 178.244 141.422 179.331C141.422 180.418 139.45 181.304 137.032 181.304H106.262C103.851 181.304 101.872 180.414 101.872 179.331C101.872 178.394 103.314 177.625 105.231 177.414H96.3742C93.9633 177.414 91.9844 176.528 91.9844 175.445C91.9844 174.363 93.9633 173.472 96.3742 173.472Z" fill="#6C63FF"/>
<path d="M452.166 308.478C450.443 309.397 448.72 310.314 446.996 311.229C445.986 311.768 444.961 312.303 443.944 312.837C443.206 313.226 442.474 313.615 441.721 313.999C437.952 315.954 434.133 317.866 430.238 319.694C429.311 320.13 428.371 320.566 427.451 320.992C419.654 324.58 411.361 327.653 402.687 330.17L402.575 330.202V308.478H452.166Z" fill="#65617D"/>
<path d="M529.706 223.099L530.486 206.905C530.02 206.661 529.546 206.436 529.093 206.211C529.285 201.383 528.875 196.553 527.866 191.77C524.717 175.577 504.266 175.225 498.496 178.567C497.732 179.011 496.898 179.398 496.009 179.72C496.531 177.409 497.179 175.094 497.646 172.807C500.169 160.47 496.253 146.592 482.024 138.619C476.066 135.287 468.785 133.239 462.242 130.45C450.522 125.477 441.261 118.132 429.409 113.291C417.556 108.449 400.91 106.635 390.569 112.859C386.563 115.269 383.978 118.61 379.867 120.935C372.202 125.266 360.252 125.552 353.562 130.389C353.228 130.633 352.907 130.881 352.601 131.144C347.026 135.952 348.552 142.772 350.329 148.739C352.468 155.919 351.583 161.675 360.739 163.737C360.774 164.023 360.802 164.309 360.851 164.59C361.596 168.995 363.763 173.237 367.2 177.02C370.638 180.802 375.263 184.034 380.751 186.488L379.267 186.844C375.309 187.782 371.749 188.691 369.47 189.314C361.109 191.606 343.508 194.592 343.508 194.592C343.508 194.592 343.089 197.967 343.166 202.944C337.299 207.233 327.509 214.77 324.631 219.237C320.451 225.752 296.829 244.411 290.537 247.228C284.245 250.044 277.423 253.386 277.423 253.386C277.423 253.386 267.459 257.084 262.742 257.436C259.474 257.68 249.363 256.377 249.363 256.377C249.363 256.377 208.984 223.099 211.604 248.634C214.224 274.169 246.478 275.036 246.478 275.036L278.998 274.684C278.998 274.684 296.571 276.269 304.438 271.872C311.155 268.122 345.967 247.551 357.151 238.219C357.409 238.411 357.667 238.599 357.938 238.782C357.938 238.782 362.391 234.91 362.92 238.782C363.45 242.653 360.029 244.406 361.868 245.812C363.708 247.218 369.212 252.149 369.47 254.085C369.728 256.02 362.133 263.928 374.975 269.927C375.177 270.021 375.393 270.11 375.63 270.199C377.922 273.709 385.211 277.145 385.211 277.145L424.545 276.793L498.761 280.665C498.761 280.665 500.97 279.357 503.959 277.22C507.952 279.685 513.492 281.799 519.735 280.501C519.735 280.501 528.654 273.288 528.919 268.535C528.919 268.535 523.149 258.5 520.557 255.51C517.965 252.519 522.397 246.004 522.397 246.004C522.397 246.004 525.539 239.667 527.379 239.667C529.218 239.667 527.901 235.449 527.901 235.449C527.206 234.759 526.771 233.966 526.634 233.138C526.496 232.31 526.661 231.472 527.114 230.696C528.654 228.029 529.706 223.099 529.706 223.099Z" fill="url(#paint0_linear)"/>
<path d="M485.216 219.452L482.429 221.646L471.168 230.467L456.459 231.067L432.914 232.041C432.914 232.041 401.168 206.31 407.132 200.709C409.3 198.688 409.655 196.022 409.223 193.505C409.167 193.158 409.09 192.811 409 192.469C408.286 189.806 407.039 187.22 405.293 184.782L406.073 184.543L406.575 184.388L434.336 175.867L441.206 173.758C441.548 175.032 442.183 176.262 443.087 177.405C443.22 177.583 443.366 177.761 443.519 177.93C452.989 188.475 483.355 181.806 483.355 181.806L485.216 219.452Z" fill="#EE8E9E"/>
<path d="M526.264 206.286C526.055 212.67 524.508 215.426 524.508 215.426L485.215 219.452L483.745 212.59L477.927 185.494L483.39 181.82C485.572 182.136 487.834 182.112 490 181.748C492.166 181.384 494.179 180.69 495.883 179.72C501.604 176.392 521.902 176.744 525.023 192.844C525.94 197.297 526.355 201.791 526.264 206.286Z" fill="#EE8E9E"/>
<path d="M516.961 281.059C516.961 281.059 525.804 273.883 526.068 269.158L517.219 259.18L509.415 253.555L494.838 272.481C494.838 272.481 504.468 283.683 516.961 281.059Z" fill="#DFE5EE"/>
<path opacity="0.1" d="M516.961 281.059C516.961 281.059 525.804 273.883 526.068 269.158L517.219 259.18L509.415 253.555L494.838 272.481C494.838 272.481 504.468 283.683 516.961 281.059Z" fill="black"/>
<path d="M443.944 312.837C443.205 313.226 442.474 313.615 441.721 313.999C437.952 315.954 434.133 317.866 430.238 319.694C429.311 320.13 428.371 320.566 427.451 320.992H389.399H218.446H205.172L139.408 319.408L86.5214 319.108L73.2822 318.639L7.22571 316.296C4.80574 310.949 2.98662 305.487 1.78371 299.957C1.51196 298.71 1.26808 297.459 1.08691 296.207L73.2543 298.898L86.4935 299.399L205.144 303.852L218.418 304.349L389.371 310.77L402.526 311.267H402.638L443.944 312.837Z" fill="#D48A9B"/>
<path d="M533.092 277.923C518.592 280.735 504.523 284.358 491.284 289.491C490.232 289.898 489.194 290.316 488.142 290.742C487.09 291.169 486.051 291.595 485.041 292.036C484.031 292.476 483.013 292.912 482.01 293.357L480.463 294.061L478.951 294.754C477.46 295.443 475.99 296.16 474.519 296.854L474.464 296.882C473.495 297.351 472.533 297.82 471.572 298.288C466.144 300.993 460.834 303.824 455.545 306.664C454.431 307.264 453.313 307.862 452.194 308.459L447.038 311.21C446.027 311.749 445.003 312.284 443.986 312.818C443.247 313.207 442.515 313.596 441.763 313.98L402.742 312.729H402.631L389.475 312.317L218.446 306.866L205.172 306.439L86.521 302.647L73.2819 302.221L1.78341 299.957C1.51166 298.71 1.26778 297.459 1.08661 296.207C0.724274 294.061 0.454843 291.905 0.27832 289.739L73.2749 272.397L86.5141 269.243L98.5408 266.384L120.455 267.152L171.105 268.9L205.193 270.105L218.467 270.574L226.947 270.874L228.974 270.949L300.341 273.456L301.093 273.489L332.937 274.605H333.299H333.508L336.693 274.712L347.549 275.097L361.122 275.565L365.596 275.725L366.439 275.758L372.766 275.978L374.571 276.039L380.612 276.254L383.016 276.344H383.092H383.594L389.245 276.545L397.997 276.854H398.039L400.756 276.948H401.049L402.672 277.009L406.658 277.15L410.142 277.272H410.177L414.086 277.407H414.149L417.11 277.515L419.382 277.595L427.444 277.881L428.893 277.932H429.395L430.091 277.961L432.454 278.045L433.513 278.082L441.735 278.368H442.487L454.626 278.298H454.709L500.858 278.045H501.743H502.677H505.422L520.278 277.965H522.494L533.092 277.923Z" fill="#EFC6CD"/>
<path d="M221.631 278.565L225.923 293.925L342.623 292.743C342.623 292.743 351.403 294.45 351.207 289.725C351.207 289.725 368.969 278.434 458.933 291.562L424.392 273.316L329.976 276.728L220.495 274.759L221.631 278.565Z" fill="#6C63FF"/>
<path d="M223.776 274.891L227.874 291.562C227.874 291.562 328.212 289.594 343.988 291.431L332.066 276.203C332.066 276.203 271.396 272.397 223.776 274.891Z" fill="white"/>
<path opacity="0.1" d="M223.776 274.891L227.874 291.562C227.874 291.562 328.212 289.594 343.988 291.431L332.066 276.203C332.066 276.203 271.396 272.397 223.776 274.891Z" fill="black"/>
<path d="M225.275 274.83L229.317 290.334C229.317 290.334 328.381 288.506 343.989 290.212L332.234 276.053C332.234 276.053 272.295 272.509 225.275 274.83Z" fill="white"/>
<path opacity="0.1" d="M227.094 275.308L231.031 289.809C231.031 289.809 327.92 288.099 343.215 289.697L331.718 276.447C331.718 276.447 273.089 273.119 227.094 275.308Z" fill="black"/>
<path d="M227.874 274.778L231.832 289.308C231.832 289.308 328.722 287.597 344.016 289.195L332.491 275.931C332.491 275.931 273.87 272.608 227.874 274.778Z" fill="white"/>
<path d="M159.323 235.346C159.323 235.346 164.395 239.803 156.988 246.539C149.581 253.274 143.463 258.955 145.937 263.154C145.937 263.154 157.086 250.649 166.214 250.499C175.342 250.349 169.336 242.864 159.323 235.346Z" fill="#6C63FF"/>
<path opacity="0.1" d="M159.323 235.346C159.769 235.778 160.119 236.252 160.361 236.752C169.239 243.783 173.97 250.344 165.434 250.485C157.484 250.635 147.952 260.197 145.666 262.615C145.745 262.796 145.836 262.979 145.938 263.163C145.938 263.163 157.087 250.658 166.215 250.508C175.343 250.358 169.336 242.864 159.323 235.346Z" fill="black"/>
<path d="M168.751 241.031C168.751 242.597 168.486 243.872 168.165 243.872C167.845 243.872 167.58 242.597 167.58 241.031C167.58 239.466 167.908 240.197 168.228 240.197C168.549 240.197 168.751 239.461 168.751 241.031Z" fill="#FFD037"/>
<path d="M171.983 242.901C169.935 243.656 168.151 244.111 167.998 243.919C167.844 243.726 169.391 242.981 171.426 242.212C173.461 241.444 172.666 242.006 172.82 242.212C172.973 242.419 174.032 242.152 171.983 242.901Z" fill="#FFD037"/>
<path d="M132.545 235.346C132.545 235.346 127.473 239.803 134.887 246.539C142.301 253.274 148.404 258.955 145.938 263.154C145.938 263.154 134.754 250.649 125.654 250.499C116.554 250.349 122.532 242.864 132.545 235.346Z" fill="#6C63FF"/>
<path opacity="0.1" d="M132.545 235.346C132.103 235.78 131.754 236.253 131.507 236.752C122.63 243.783 117.899 250.344 126.434 250.485C134.385 250.635 143.924 260.197 146.21 262.615C146.135 262.796 146.045 262.979 145.938 263.163C145.938 263.163 134.754 250.658 125.654 250.508C116.554 250.358 122.532 242.864 132.545 235.346Z" fill="black"/>
<path d="M123.117 241.031C123.117 242.597 123.382 243.872 123.702 243.872C124.023 243.872 124.288 242.597 124.288 241.031C124.288 239.466 123.96 240.197 123.64 240.197C123.319 240.197 123.117 239.461 123.117 241.031Z" fill="#FFD037"/>
<path d="M119.884 242.901C121.933 243.656 123.724 244.111 123.877 243.919C124.03 243.726 122.483 242.981 120.449 242.212C118.414 241.444 119.208 242.006 119.055 242.212C118.902 242.419 117.836 242.152 119.884 242.901Z" fill="#FFD037"/>
<path d="M173.196 257.141L172.945 258.547L172.59 260.511L172.443 261.331L172.088 263.299L171.935 264.12L171.572 266.088L167.517 288.455C167.155 290.452 162.305 292.008 156.452 292.008H135.395C129.542 292.008 124.699 290.452 124.336 288.455L120.274 266.088L119.919 264.12L119.772 263.299L119.41 261.331L119.264 260.511L118.908 258.547L118.651 257.141C118.449 256.011 121.068 255.06 124.385 255.06H167.489C170.799 255.06 173.426 256.011 173.196 257.141Z" fill="#65617D"/>
<path d="M172.966 258.533L172.61 260.501H119.264L118.908 258.533H172.966Z" fill="#9D9CB5"/>
<path d="M172.464 261.322L172.109 263.29H119.772L119.41 261.322H172.464Z" fill="#9D9CB5"/>
<path d="M171.956 264.11L171.6 266.074H120.274L119.919 264.11H171.956Z" fill="#9D9CB5"/>
<path d="M237.503 255.331C237.503 255.331 223.972 246.581 224.494 257.956C225.017 269.332 237.503 255.331 237.503 255.331Z" fill="#EE8E9E"/>
<path d="M359.018 235.379C358.719 236.26 357.262 237.722 354.991 239.555C343.257 249.06 309.873 268.816 303.33 272.481C295.526 276.859 278.092 275.294 278.092 275.294L245.83 275.645C245.83 275.645 213.826 274.769 211.22 249.398C208.614 224.027 248.687 257.098 248.687 257.098C248.687 257.098 258.721 258.392 261.961 258.148C266.644 257.802 276.531 254.127 276.531 254.127C276.531 254.127 283.297 250.799 289.541 248.001C295.784 245.203 319.203 226.647 323.37 220.169C326.011 216.059 334.519 209.337 340.393 204.979C343.765 202.471 346.267 200.76 346.267 200.76C346.267 200.76 360.837 229.951 359.018 235.379Z" fill="#EE8E9E"/>
<path opacity="0.1" d="M359.018 235.379C358.718 236.26 357.262 237.722 354.99 239.555C343.145 231.442 340.671 215.253 340.393 204.96C343.765 202.452 346.267 200.741 346.267 200.741C346.267 200.741 360.837 229.951 359.018 235.379Z" fill="black"/>
<path opacity="0.1" d="M482.422 221.646L471.168 230.467L456.459 231.067L432.914 232.041C432.914 232.041 401.168 206.31 407.132 200.709C409.3 198.688 409.655 196.022 409.223 193.505C409.167 193.158 409.09 192.811 409 192.469C408.286 189.806 407.039 187.22 405.293 184.782L406.073 184.543L406.575 184.388C407.814 186.71 408.669 189.117 409.125 191.564C409.202 191.897 409.272 192.244 409.341 192.6C409.585 193.866 409.808 195.272 410.038 196.818C411.85 210.983 425.096 216.312 431.075 218.008C432.997 218.554 434.876 219.166 436.705 219.841C442.456 221.975 449.089 222.782 455.588 222.138C470.346 220.835 482.38 213.621 482.38 213.621L482.442 220.722L482.422 221.646Z" fill="black"/>
<path d="M482.874 276.686C482.874 276.686 386.082 276.507 373.323 270.56C360.565 264.612 368.125 256.733 367.861 254.806C367.596 252.88 362.14 247.982 360.321 246.576C358.503 245.17 361.882 243.426 361.359 239.578C360.837 235.73 356.419 239.578 356.419 239.578C338.198 227.148 342.1 195.647 342.1 195.647C342.1 195.647 359.52 192.675 367.881 190.392C370.146 189.774 373.672 188.893 377.637 187.941L379.107 187.585C389.329 185.124 401.481 182.345 401.481 182.345C401.481 182.345 403.815 181.234 406.164 184.557C407.237 186.085 408.317 188.546 409.181 192.478C409.257 192.811 409.327 193.158 409.397 193.514C409.641 194.78 409.864 196.186 410.093 197.732C411.905 211.897 425.151 217.226 431.13 218.922C433.052 219.468 434.931 220.08 436.76 220.755C442.512 222.889 449.145 223.696 455.643 223.052C470.401 221.749 482.435 214.535 482.435 214.535L482.498 221.636L482.679 242.972L482.874 276.686Z" fill="#DFE5EE"/>
<path d="M478.708 249.032L477.147 255.683C477.147 255.683 438.635 262.156 423.549 264.082C408.464 266.009 375.93 263.557 373.589 267.757C371.248 271.956 383.476 277.736 383.476 277.736L422.497 277.384L496.135 281.237C496.135 281.237 524.237 264.607 515.13 253.054C506.022 241.5 478.708 249.032 478.708 249.032Z" fill="#EE8E9E"/>
<path opacity="0.1" d="M399.349 196.523C399.349 196.523 381.651 206.324 385.037 211.053C388.424 215.782 399.349 196.523 399.349 196.523Z" fill="black"/>
<path opacity="0.1" d="M377.49 214.198C377.49 214.198 359.534 235.027 360.579 236.602C361.624 238.177 366.565 243.778 366.3 239.578C366.035 235.379 377.49 214.198 377.49 214.198Z" fill="black"/>
<path opacity="0.1" d="M384.779 217.877C384.779 217.877 380.599 230.828 376.453 236.255C372.307 241.683 384.779 217.877 384.779 217.877Z" fill="black"/>
<path opacity="0.1" d="M443.554 177.944C440.113 182.188 435.212 185.816 429.259 188.525C423.307 191.233 416.478 192.944 409.341 193.514H409.258C398.032 194.401 386.721 192.409 377.581 187.936C388.033 185.396 401.425 182.34 401.425 182.34C401.425 182.34 403.76 181.229 406.108 184.552L441.241 173.772C441.635 175.244 442.419 176.657 443.554 177.944Z" fill="black"/>
<path d="M449.045 162.392C449.058 167.663 447.016 172.844 443.122 177.419C441.262 179.6 439.008 181.618 436.412 183.427C429.168 188.5 419.516 191.71 409.125 192.502H409.035C407.374 192.63 405.704 192.694 404.032 192.694C392.972 192.694 382.299 189.955 374.049 185C365.799 180.045 360.551 173.22 359.304 165.828C359.111 164.693 359.015 163.552 359.019 162.411C359.019 154.38 363.761 146.679 372.203 141.001C380.644 135.322 392.094 132.132 404.032 132.132C415.97 132.132 427.419 135.322 435.861 141.001C444.303 146.679 449.045 154.38 449.045 162.411V162.392Z" fill="#EE8E9E"/>
<path opacity="0.1" d="M478.191 219.687L482.372 215.468C482.372 215.468 505.269 197.09 527.664 208.817L526.884 224.922C526.884 224.922 525.839 229.82 524.278 232.421C523.829 233.193 523.666 234.027 523.802 234.85C523.938 235.674 524.369 236.463 525.058 237.15C525.058 237.15 526.361 241.369 524.542 241.369C522.724 241.369 519.595 247.668 519.595 247.668C519.595 247.668 515.171 254.146 517.777 257.122C520.383 260.098 526.103 270.072 526.103 270.072C526.103 270.072 516.996 266.398 514.39 260.272C514.39 260.272 492.274 248.718 475.098 256.053L478.191 219.687Z" fill="black"/>
<path opacity="0.1" d="M526.264 206.286C526.055 212.67 524.508 215.426 524.508 215.426L485.215 219.452L483.745 212.59C488.887 208.981 507.59 197.507 526.264 206.286Z" fill="black"/>
<path d="M478.191 218.749L482.372 214.531C482.372 214.531 505.269 196.153 527.664 207.88L526.884 223.984C526.884 223.984 525.839 228.882 524.278 231.484C523.829 232.256 523.666 233.089 523.802 233.913C523.938 234.737 524.369 235.526 525.058 236.213C525.058 236.213 526.361 240.431 524.542 240.431C522.724 240.431 519.595 246.731 519.595 246.731C519.595 246.731 515.171 253.208 517.777 256.185C520.383 259.161 526.103 269.135 526.103 269.135C526.103 269.135 516.996 265.46 514.39 259.334C514.39 259.334 492.274 247.781 475.098 255.116L478.191 218.749Z" fill="#DFE5EE"/>
<path opacity="0.1" d="M515.136 206.849C515.136 206.849 477.411 222.428 479.23 236.091C479.23 236.091 500.308 211.048 515.136 206.849Z" fill="black"/>
<path opacity="0.1" d="M482.414 221.65L482.595 242.986C475.46 243.201 468.736 242.578 463.419 239.471C459.719 237.305 457.566 234.315 456.451 231.081C455.622 228.475 455.317 225.806 455.546 223.146C455.542 223.119 455.542 223.092 455.546 223.066C455.985 217.174 457.998 211.283 456.939 205.429C455.88 199.574 450.605 193.397 441.993 192.164C440.293 191.916 438.383 191.827 437.171 190.988C435.833 190.05 435.896 188.593 436.042 187.294L436.293 185.105C436.356 184.543 436.384 183.985 436.384 183.428C436.379 178.451 433.805 173.631 429.103 169.789C424.401 165.947 417.861 163.323 410.602 162.364L410.323 162.331C407.899 162.003 405.376 161.68 402.951 162.055C398.338 162.772 395.356 165.781 391.106 167.21C382.953 169.948 369.359 166.953 360.823 166.01C360.265 165.95 359.736 165.879 359.227 165.8C359.033 164.665 358.938 163.524 358.941 162.383C358.945 157.745 360.531 153.17 363.58 149.01C366.628 144.851 371.056 141.217 376.522 138.391C381.988 135.565 388.346 133.621 395.106 132.709C401.866 131.797 408.847 131.942 415.51 133.133C422.174 134.323 428.341 136.528 433.538 139.576C438.734 142.623 442.82 146.434 445.481 150.712C448.142 154.99 449.306 159.622 448.883 164.251C448.461 168.88 446.464 173.382 443.045 177.409C443.177 177.587 443.324 177.766 443.477 177.934C452.947 188.48 483.313 181.81 483.313 181.81L485.139 219.443L482.414 221.65Z" fill="black"/>
<path d="M392.743 166.69C396.966 165.256 399.948 162.247 404.589 161.534C407.006 161.159 409.529 161.483 411.968 161.806L412.246 161.844C419.921 162.865 426.773 165.745 431.503 169.937C436.232 174.129 438.512 179.343 437.909 184.59L437.659 186.779C437.505 188.072 437.443 189.539 438.794 190.467C440 191.306 441.909 191.405 443.609 191.639C452.222 192.877 457.496 199.021 458.556 204.908C459.615 210.795 457.566 216.706 457.162 222.621C456.758 228.536 458.374 235.065 465.022 238.95C475.474 245.043 491.361 241.575 505.192 241.017C499.074 241.017 494.489 236.771 494.155 232.665C493.821 228.559 496.538 224.65 499.137 220.947C501.736 217.245 504.342 213.261 503.764 209.164C502.969 203.54 496.378 199.035 493.855 193.622C490.915 187.322 493.751 180.559 495.082 174.011C497.583 161.75 493.688 147.947 479.578 140.021C473.669 136.707 466.443 134.668 459.949 131.893C448.313 126.93 439.136 119.651 427.374 114.823C415.612 109.996 399.098 108.205 388.834 114.392C384.862 116.787 382.298 120.11 378.215 122.421C370.236 126.944 357.555 127.028 351.158 132.578C345.653 137.354 347.144 144.136 348.907 150.065C351.256 157.972 349.932 164.126 362.495 165.532C370.996 166.437 384.583 169.432 392.743 166.69Z" fill="#603556"/>
<path opacity="0.1" d="M496.26 237.239C486.191 238.069 476.213 238.496 468.883 234.221C462.235 230.335 460.598 223.811 461.023 217.891C461.448 211.972 463.483 206.057 462.417 200.174C461.351 194.292 456.083 188.147 447.47 186.91C445.77 186.666 443.868 186.577 442.655 185.738C441.311 184.801 441.366 183.338 441.52 182.045L441.77 179.856C442.373 174.609 440.093 169.397 435.363 165.205C430.633 161.014 423.782 158.135 416.107 157.114L415.829 157.077C413.39 156.754 410.867 156.43 408.45 156.805C403.837 157.522 400.854 160.555 396.604 161.961C388.444 164.703 374.864 161.708 366.314 160.766C353.772 159.383 355.082 153.219 352.727 145.298C351.41 140.874 350.246 135.971 352.03 131.781C351.695 132.02 351.375 132.25 351.068 132.536C345.564 137.312 347.055 144.094 348.818 150.023C351.166 157.93 349.842 164.084 362.405 165.49C370.948 166.428 384.535 169.427 392.695 166.685C396.918 165.251 399.9 162.242 404.541 161.53C406.958 161.155 409.481 161.478 411.92 161.801L412.198 161.839C419.873 162.86 426.725 165.74 431.455 169.932C436.184 174.125 438.464 179.338 437.861 184.585L437.611 186.774C437.457 188.068 437.395 189.535 438.746 190.463C439.952 191.302 441.861 191.4 443.561 191.634C452.174 192.872 457.448 199.017 458.508 204.904C459.567 210.79 457.525 216.701 457.114 222.616C456.703 228.531 458.326 235.06 464.974 238.946C475.426 245.039 491.313 241.57 505.144 241.013C501.389 241.027 498.232 239.424 496.26 237.239Z" fill="black"/>
<path d="M213.471 252.875L256.429 242.095C257.444 241.84 258.569 241.867 259.555 242.169C260.541 242.471 261.309 243.025 261.689 243.708C262.068 244.391 262.029 245.147 261.58 245.811C261.13 246.474 260.307 246.991 259.292 247.246L216.335 258.027L207.123 257.408L213.471 252.875Z" fill="#5C5C8E"/>
<path opacity="0.1" d="M260.394 242.826C260.773 243.51 260.732 244.267 260.281 244.931C259.83 245.594 259.006 246.11 257.99 246.365L215.004 257.183L208.092 256.714L207.096 257.427L216.307 258.045L259.265 247.265C260.28 247.009 261.103 246.493 261.552 245.829C262.002 245.166 262.041 244.409 261.662 243.726C261.345 243.157 260.757 242.674 259.99 242.353C260.144 242.503 260.279 242.661 260.394 242.826Z" fill="white"/>
<path d="M213.478 252.875L216.335 258.027L208.781 257.516L207.13 257.403L209.388 255.791L213.478 252.875Z" fill="#EFC8C4"/>
<path d="M209.381 255.777C209.558 255.866 209.709 255.975 209.827 256.1C209.898 256.175 209.935 256.262 209.935 256.351C209.935 256.44 209.898 256.527 209.827 256.602C209.708 256.684 209.569 256.752 209.416 256.803C209.244 256.881 209.099 256.983 208.993 257.103C208.887 257.223 208.822 257.358 208.803 257.497L207.145 257.389L209.381 255.777Z" fill="#727A9C"/>
<path d="M348.35 285.774C348.35 285.774 385.559 280.52 447.992 287.18L423.535 275.106L379.037 268.98L347.556 274.605L348.35 285.774Z" fill="white"/>
<path opacity="0.1" d="M348.35 285.774C348.35 285.774 385.559 280.52 447.992 287.18L423.535 275.106L379.037 268.98L347.556 274.605L348.35 285.774Z" fill="black"/>
<path d="M343.989 291.455C343.989 291.455 362.726 257.361 458.96 291.562L424.42 276.611C424.42 276.611 341.675 261.232 332.115 278.954L343.989 291.455Z" fill="white"/>
<path opacity="0.1" d="M343.989 291.431C343.989 291.431 362.726 254.98 458.96 292.087L424.42 275.87C424.42 275.87 341.647 257.478 332.066 276.728L343.989 291.431Z" fill="black"/>
<path d="M343.989 291.445C343.989 291.445 362.726 254.455 458.96 291.562L424.42 275.345C424.42 275.345 341.675 257.478 332.115 276.751L343.989 291.445Z" fill="white"/>
<path opacity="0.1" d="M343.988 291.455C343.988 291.455 362.725 250.344 458.96 292.087L424.392 273.841C424.392 273.841 341.647 255.092 332.087 276.728L343.988 291.455Z" fill="black"/>
<path d="M343.988 291.431C343.988 291.431 362.725 249.82 458.96 291.562L424.392 273.316C424.392 273.316 341.647 254.568 332.087 276.203L343.988 291.431Z" fill="white"/>
<path opacity="0.1" d="M632.7 287.513C632.7 287.513 609.601 304.156 630.394 312.242C630.394 312.242 633.111 314.444 636.992 313.291C636.992 313.291 635.682 312.509 638.309 310.999C639.238 310.458 640.068 309.844 640.783 309.172C641.752 308.263 642.256 307.168 642.218 306.05C642.218 306.05 645.242 299.446 635.634 290.873C635.634 290.873 634.763 288.005 634.024 287.691L632.268 291.689C632.268 291.689 636.679 292.443 638.337 294.703C638.337 294.703 632.526 291.633 631.961 292.275C631.85 292.406 631.174 294.426 631.174 294.426C631.174 294.426 638.839 295.757 641.236 299.301C641.236 299.301 635.041 295.021 630.909 295.19L630.157 298.274C630.157 298.274 638.358 299.418 641.306 303.383C641.306 303.383 634.602 299.057 630.045 298.958L629.913 302.057C629.913 302.057 637.877 303.275 640.309 306.584C640.309 306.584 631.815 302.118 629.955 302.769C629.955 302.769 630.087 305.623 630.652 306.369C630.652 306.369 636.337 307.306 637.494 309.34C637.494 309.34 631.348 306.758 630.819 307.151C630.819 307.151 632.47 310.835 634.77 312.406C634.77 312.406 631.118 310.254 629.976 307.353C629.976 307.353 628.429 309.167 628.819 310.948C628.819 310.948 626.54 309.251 629.592 306.458C629.592 306.458 628.477 303.552 628.756 303.092C628.756 303.092 625.168 305.562 624.248 307.779C624.248 307.779 623.551 305.005 628.749 302.291V299.169C628.749 299.169 623.746 302.268 622.715 304.185C622.715 304.185 622.645 301.279 628.854 298.387L629.551 295.354C629.551 295.354 624.938 297.801 623.105 299.769C623.105 299.769 623.9 297.06 629.794 294.492L630.61 292.504C630.61 292.504 627.293 294.332 626.429 294.914C625.565 295.495 625.237 295.382 625.237 295.382C626.595 293.811 628.572 292.523 630.951 291.661C630.951 291.661 633.083 287.62 632.7 287.513Z" fill="#6C63FF"/>
<path opacity="0.1" d="M735.958 16.6953C735.958 16.6953 705.097 26.0693 719.646 38.9072C719.646 38.9072 720.894 41.6491 725.13 41.5928C725.13 41.5928 724.371 40.5289 727.66 39.8165C728.828 39.5595 729.947 39.2086 730.99 38.7712C732.405 38.1846 733.498 37.3046 734.105 36.2637C734.105 36.2637 740.683 30.9579 736.732 20.5574C736.732 20.5574 737.575 17.6842 737.073 17.2014L733.157 20.4355C733.157 20.4355 736.795 22.2728 737.031 24.7898C737.031 24.7898 733.436 20.4496 732.544 20.8995C732.363 20.9886 730.586 22.6759 730.586 22.6759C730.586 22.6759 736.857 25.8912 737.073 29.7862C737.073 29.7862 733.812 24.2273 729.896 23.3087L727.437 25.9615C727.437 25.9615 734.349 29.144 734.809 33.5686C734.809 33.5686 731.102 27.841 726.956 26.5662L725.053 29.3784C725.053 29.3784 731.708 32.5703 732.021 36.2543C732.021 36.2543 726.747 29.9268 724.656 30.0486C724.656 30.0486 723.144 32.7109 723.263 33.5499C723.263 33.5499 727.959 35.8934 727.876 38.0682C727.876 38.0682 723.695 34.0936 722.998 34.3185C722.998 34.3185 722.406 38.1432 723.632 40.1914C723.632 40.1914 721.493 37.2573 722.106 34.2857C722.106 34.2857 719.632 35.5606 718.977 37.3042C718.977 37.3042 717.849 35.1435 722.266 33.3577C722.266 33.3577 722.9 30.3908 723.423 30.0393C723.423 30.0393 718.692 31.3845 716.587 33.1749C716.587 33.1749 717.528 30.433 723.89 29.28L725.702 26.4115C725.702 26.4115 719.312 27.9676 717.256 29.4675C717.256 29.4675 718.859 26.7677 726.245 25.7178L728.621 23.1024C728.621 23.1024 722.963 24.1664 720.141 25.5022C720.141 25.5022 722.434 23.2149 729.346 22.3713L731.234 20.7495C731.234 20.7495 727.123 21.5745 725.973 21.8838C724.824 22.1932 724.58 22.0104 724.58 22.0104C726.746 20.908 729.325 20.2329 732.028 20.0605C732.028 20.0605 736.209 16.8827 735.958 16.6953Z" fill="#6C63FF"/>
<path opacity="0.1" d="M443.046 22.4978C443.046 22.4978 396.681 31.4032 419.222 44.6581C419.222 44.6581 421.222 47.4704 427.639 47.4704C427.639 47.4704 426.441 46.383 431.402 45.7221C433.11 45.491 434.784 45.1585 436.405 44.7285C438.316 44.2779 439.943 43.4036 441.018 42.249C441.018 42.249 450.773 36.9995 444.369 26.4162C444.369 26.4162 445.533 23.529 444.753 23.0321L438.955 26.2287C438.955 26.2287 444.53 28.1551 444.997 30.7001C444.997 30.7001 439.373 26.2521 438.029 26.688C437.757 26.7771 435.13 28.4457 435.13 28.4457C435.13 28.4457 444.801 31.811 445.24 35.7528C445.24 35.7528 440.084 30.0768 434.092 29.0784L430.468 31.7125C430.468 31.7125 441.06 35.0544 441.931 39.5352C441.931 39.5352 436.091 33.6811 429.765 32.3172L426.977 35.1294C426.977 35.1294 437.178 38.4759 437.847 42.2068C437.847 42.2068 429.604 35.7153 426.441 35.7949C426.441 35.7949 424.26 38.4666 424.455 39.3149C424.455 39.3149 431.66 41.7897 431.625 43.9645C431.625 43.9645 425.117 39.868 424.044 40.0836C424.044 40.0836 423.305 43.941 425.242 46.0315C425.242 46.0315 421.884 43.0271 422.692 40.0367C422.692 40.0367 419.006 41.2788 418.079 43.0271C418.079 43.0271 416.282 40.8288 422.901 39.104C422.901 39.104 423.744 36.1137 424.518 35.7668C424.518 35.7668 417.41 37.0417 414.296 38.8134C414.296 38.8134 415.606 36.0574 425.194 35.0075L427.827 32.1391C427.827 32.1391 418.212 33.6014 415.16 35.0778C415.16 35.0778 417.48 32.3781 428.629 31.4407L432.113 28.8394C432.113 28.8394 423.584 29.8096 419.361 31.1126C419.361 31.1126 422.741 28.8394 433.172 28.1129L435.959 26.5099C435.959 26.5099 429.765 27.2692 428.036 27.5598C426.308 27.8504 425.946 27.6629 425.946 27.6629C429.428 26.5288 433.228 25.9026 437.095 25.8256C437.095 25.8256 443.45 22.6947 443.046 22.4978Z" fill="#6C63FF"/>
<path opacity="0.1" d="M579.834 370.005C579.834 370.005 603.177 353.511 582.503 345.29C582.503 345.29 579.813 343.068 575.918 344.193C575.918 344.193 577.221 344.985 574.573 346.48C573.637 347.016 572.798 347.623 572.072 348.29C571.088 349.191 570.569 350.284 570.595 351.402C570.595 351.402 567.466 357.987 576.956 366.621C576.956 366.621 577.786 369.494 578.517 369.817L580.336 365.829C580.336 365.829 575.932 365.046 574.308 362.777C574.308 362.777 580.071 365.88 580.642 365.243C580.761 365.111 581.465 363.101 581.465 363.101C581.465 363.101 573.8 361.695 571.473 358.161C571.473 358.161 577.604 362.482 581.743 362.337L582.538 359.257C582.538 359.257 574.357 358.062 571.452 354.102C571.452 354.102 578.092 358.47 582.649 358.601L582.823 355.498C582.823 355.498 574.873 354.205 572.462 350.877C572.462 350.877 580.893 355.405 582.761 354.762C582.761 354.762 582.67 351.913 582.064 351.163C582.064 351.163 576.392 350.16 575.263 348.144C575.263 348.144 581.374 350.769 581.904 350.375C581.904 350.375 580.308 346.682 578.029 345.098C578.029 345.098 581.653 347.273 582.754 350.179C582.754 350.179 584.328 348.374 583.959 346.593C583.959 346.593 586.217 348.308 583.123 351.078C583.123 351.078 584.196 353.994 583.91 354.448C583.91 354.448 587.534 352.002 588.481 349.813C588.481 349.813 589.178 352.592 583.903 355.269L583.834 358.39C583.834 358.39 588.879 355.325 589.938 353.413C589.938 353.413 589.938 356.323 583.715 359.173L583.018 362.201C583.018 362.201 587.666 359.782 589.527 357.828C589.527 357.828 588.69 360.528 582.761 363.059L581.918 365.041C581.918 365.041 585.262 363.237 586.154 362.66C587.046 362.084 587.353 362.191 587.353 362.191C585.974 363.755 583.977 365.031 581.583 365.875C581.583 365.875 579.486 369.892 579.834 370.005Z" fill="#6C63FF"/>
<path opacity="0.1" d="M352.169 0.581217C352.169 0.581217 356.148 23.1915 378.752 17.7358C378.752 17.7358 383.009 17.7592 384.208 15.022C384.208 15.022 382.466 15.1907 382.452 12.866C382.436 12.039 382.274 11.2161 381.971 10.4146C381.57 9.33026 380.652 8.36398 379.358 7.66334C379.358 7.66334 373.812 1.84203 357.848 1.27021C357.848 1.27021 354.029 -0.1359 353.193 0.0422079L356.601 3.52468C356.601 3.52468 360.301 1.74361 363.938 2.35292C363.938 2.35292 356.705 3.35595 357.074 4.059C357.144 4.2043 358.998 5.84945 358.998 5.84945C358.998 5.84945 365.513 2.75601 371.087 3.81059C371.087 3.81059 362.231 4.22305 359.75 6.45877L362.725 8.83979C362.725 8.83979 369.317 5.362 375.735 6.39784C375.735 6.39784 366.495 7.05403 363.436 9.32724L366.906 11.3989C366.906 11.3989 373.428 8.08986 378.752 8.9804C378.752 8.9804 368.188 10.4615 367.728 11.8348C367.728 11.8348 371.052 13.6065 372.279 13.794C372.279 13.794 377.045 11.4927 380.069 12.1957C380.069 12.1957 373.17 13.6862 373.275 14.2111C373.275 14.2111 378.522 15.7391 381.79 15.5704C381.79 15.5704 376.989 16.0391 372.961 14.7736C372.961 14.7736 374.021 16.7375 376.299 17.6889C376.299 17.6889 372.899 17.7592 371.693 14.408C371.693 14.408 367.68 13.105 367.338 12.6691C367.338 12.6691 367.826 16.1047 369.728 17.9936C369.728 17.9936 366.119 16.5875 366.398 12.1395L362.914 10.11C362.914 10.11 363.199 14.6798 364.704 16.4515C364.704 16.4515 361.36 14.6095 362.084 9.55222L359.095 7.24151C359.095 7.24151 358.893 11.188 359.938 13.4003C359.938 13.4003 357.381 11.2442 358.273 6.5572L356.538 4.8558C356.538 4.8558 356.475 7.73834 356.538 8.57263C356.601 9.40692 356.301 9.4866 356.301 9.4866C355.385 7.76924 355.197 5.91444 355.757 4.12931C355.757 4.12931 352.517 0.468728 352.169 0.581217Z" fill="#6C63FF"/>
<path opacity="0.1" d="M521.115 318.724C521.115 318.724 488.491 312.631 487.446 328.773C487.446 328.773 485.801 331.416 489.111 333.197C489.111 333.197 489.536 332.054 492.741 332.921C493.885 333.225 495.077 333.438 496.295 333.554C497.941 333.713 499.62 333.506 501.075 332.963C501.075 332.963 511.179 331.716 518.035 322.023C518.035 322.023 521.415 320.181 521.519 319.591L515.436 320.392C515.436 320.392 516.481 323.373 514.265 325.407C514.265 325.407 515.659 320.524 514.523 320.486C514.293 320.486 511.325 321.006 511.325 321.006C511.325 321.006 513.109 326.19 509.548 329.26C509.548 329.26 512.335 323.589 510.196 321.199L505.778 322.178C505.778 322.178 508.064 327.596 504.204 331.196C504.204 331.196 506.81 325.201 504.831 322.436L500.692 323.79C500.692 323.79 502.782 329.106 499.528 332.087C499.528 332.087 501.493 324.953 499.772 324.142C499.772 324.142 496.079 325.548 495.361 326.232C495.361 326.232 496.755 330.071 494.609 331.688C494.609 331.688 495.166 326.828 494.407 326.696C494.407 326.696 490.309 329.382 489.306 331.482C489.306 331.482 490.456 328.309 493.752 326.289C493.752 326.289 490.644 326.204 488.477 327.259C488.477 327.259 489.661 325.117 494.748 325.647C494.748 325.647 498.065 323.636 498.796 323.594C498.796 323.594 493.919 322.591 490.56 323.059C490.56 323.059 493.891 321.353 499.877 323.209L504.002 321.803C504.002 321.803 497.605 320.252 494.602 320.519C494.602 320.519 498.399 319.113 505.054 321.498L509.36 320.51C509.36 320.51 504.009 318.892 500.566 318.705C500.566 318.705 504.503 317.932 510.614 320.261L513.61 319.825C513.61 319.825 509.667 318.691 508.489 318.419C507.311 318.147 507.318 317.95 507.318 317.95C510.017 318.033 512.629 318.617 514.865 319.638C514.865 319.638 521.136 318.982 521.115 318.724Z" fill="#6C63FF"/>
</g>
<defs>
<linearGradient id="paint0_linear" x1="370.982" y1="280.885" x2="370.982" y2="108.866" gradientUnits="userSpaceOnUse">
<stop stop-color="#808080" stop-opacity="0.25"/>
<stop offset="0.54" stop-color="#808080" stop-opacity="0.12"/>
<stop offset="1" stop-color="#808080" stop-opacity="0.1"/>
</linearGradient>
<clipPath id="clip0">
<rect width="738" height="370" fill="white"/>
</clipPath>
</defs>
</svg>
