<svg width="48" height="48" viewBox="0 0 48 48" fill="none" xmlns="http://www.w3.org/2000/svg">
<path d="M33.5985 5.83092C32.4942 5.3887 31.2081 5.8508 30.7257 6.86303C30.2432 7.87525 30.7473 9.05426 31.8516 9.49648C38.9505 12.3394 43.6362 18.7756 43.6362 25.9999C43.6362 35.9407 34.8437 44 23.9999 44C13.1547 44 4.36356 35.9414 4.36356 25.9999C4.36356 18.7772 9.04765 12.341 16.1445 9.4962C17.2486 9.0537 17.7523 7.8745 17.2694 6.86246C16.7867 5.85042 15.5003 5.3887 14.3963 5.8313C5.72471 9.30711 0 17.1734 0 25.9998C0 38.1505 10.7449 48 24 48C37.2537 48 48 38.1498 48 25.9998C48 17.1713 42.2729 9.30467 33.5985 5.83092Z" fill="black"/>
<path d="M23.9992 22.0002C25.2041 22.0002 26.1809 21.1048 26.1809 20.0002V2.00008C26.181 0.895413 25.2041 0 23.9992 0C22.7942 0 21.8174 0.895413 21.8174 1.99998V20.0001C21.8174 21.1047 22.7942 22.0002 23.9992 22.0002Z" fill="black"/>
</svg>
